<?xml version="1.0" encoding="utf-8"?>
<!-- Generator: Adobe Illustrator 16.0.3, SVG Export Plug-In . SVG Version: 6.00 Build 0)  -->
<!DOCTYPE svg PUBLIC "-//W3C//DTD SVG 1.1//EN" "http://www.w3.org/Graphics/SVG/1.1/DTD/svg11.dtd">
<svg version="1.1" xmlns="http://www.w3.org/2000/svg" xmlns:xlink="http://www.w3.org/1999/xlink" x="0px" y="0px" width="1300px"
	 height="1300px" viewBox="0 0 1300 1300" enable-background="new 0 0 1300 1300" xml:space="preserve">
<g id="Capa_1" display="none">
	<path display="inline" fill="#FFC200" d="M646,882c-50-18-90-55-142-66c-58.971-12.689-115.156-11.446-173.13-3.763
		c73.03,96.481,188.798,158.819,319.13,158.819c83.292,0,160.635-25.462,224.678-69.021c-4.212,0.392-8.437,0.716-12.678,0.965
		C789,907,716,908,646,882z"/>
	<path display="inline" d="M763,240c-40.225-18.709-74.325-44.418-112.94-68.942c-0.02,0-0.04,0-0.06,0
		c-55.075,0-107.547,11.137-155.296,31.272C532.868,224.493,562.542,256.725,598,284c49,37,104,63,164,52
		c69.153-11.407,135.766-11.125,202.735-11.833c-19.193-24.434-41.175-46.572-65.459-65.948
		C852.391,262.082,805.773,260.457,763,240z"/>
	<path display="inline" fill="#FFC200" d="M763,240c42.773,20.457,89.391,22.082,136.276,18.219
		c-68.354-54.538-154.976-87.147-249.216-87.161C688.675,195.582,722.775,221.291,763,240z"/>
	<path display="inline" fill="#FFE687" d="M620,483c46,5,90-2,130-27c66-41,138-51,212-44c19.217,1.58,38.364,3.575,57.479,5.584
		c-14.021-33.715-32.505-65.108-54.743-93.418C897.766,324.875,831.153,324.593,762,336c-60,11-115-15-164-52
		c-35.458-27.275-65.132-59.507-103.296-81.671c-67.102,28.296-124.859,74.381-167.389,132.338
		C359.439,339.086,391.388,354.172,420,370C487,408,540,473,620,483z"/>
	<path display="inline" fill="#FFE687" d="M771,600c-97,11-192,22-290,1c-74-16-123-68-186-109
		c-10.857-7.042-21.974-12.782-33.322-17.216c-6.563,26.554-10.479,54.152-11.438,82.501c7.218,4.655,13.632,10.45,18.761,17.715
		c51,77,107,155,202,165c101,10,202-13,299,22c60.205,22.219,117.843,56.764,179.171,74.553
		c51.499-57.985,86.38-131.047,97.224-211.729C1017.874,617.715,990,608.87,960,603C895,591,835,593,771,600z"/>
	<path display="inline" fill="#FFC200" d="M1019.479,417.584c-19.114-2.01-38.262-4.005-57.479-5.584c-74-7-146,3-212,44
		c-40,25-84,32-130,27c-80-10-133-75-200-113c-28.612-15.828-60.561-30.914-92.685-35.333
		c-30.358,41.37-52.951,88.791-65.637,140.117C273.026,479.218,284.143,484.958,295,492c63,41,112,93,186,109c98,21,193,10,290-1
		c64-7,124-9,189,3c30,5.87,57.874,14.715,86.395,21.824c2.364-17.587,3.605-35.531,3.605-53.767
		C1050,516.68,1039.133,464.846,1019.479,417.584z"/>
	<path display="inline" d="M471,740c-95-10-151-88-202-165c-5.129-7.266-11.543-13.06-18.761-17.715
		c-0.155,4.573-0.24,9.163-0.24,13.772c0,90.582,30.115,174.125,80.87,241.18c57.974-7.684,114.16-8.927,173.13,3.763
		c52,11,92,48,142,66c70,26,143,25,216,21c4.241-0.249,8.466-0.573,12.678-0.965c27.476-18.688,52.495-40.713,74.493-65.482
		C887.843,818.764,830.205,784.219,770,762C673,727,572,750,471,740z"/>
</g>
<g id="Capa_3">
	<path fill="#FF0000" d="M644.317,882c-50-18-90-55-142-66c-58.971-12.689-115.156-11.445-173.13-3.762
		c73.03,96.48,188.798,158.818,319.13,158.818c83.292,0,160.635-25.461,224.678-69.021c-4.212,0.393-8.437,0.717-12.678,0.965
		C787.317,907,714.317,908,644.317,882z"/>
	<path fill="#FF5400" d="M761.317,240c-40.225-18.709-74.325-44.418-112.94-68.942c-0.02,0-0.04,0-0.06,0
		c-55.075,0-107.547,11.137-155.296,31.272c38.164,22.164,67.838,54.396,103.296,81.671c49,37,104,63,164,52
		c69.153-11.407,135.766-11.125,202.735-11.833c-19.193-24.434-41.175-46.572-65.459-65.948
		C850.708,262.082,804.091,260.458,761.317,240z"/>
	<path fill="#FF0000" d="M761.317,240c42.773,20.457,89.391,22.082,136.276,18.219c-68.354-54.538-154.976-87.147-249.216-87.161
		C686.992,195.583,721.093,221.292,761.317,240z"/>
	<path fill="#FFC200" d="M618.317,483c46,5,90-2,130-27c66-41,138-51,212-44c19.217,1.58,38.364,3.575,57.479,5.584
		c-14.021-33.715-32.505-65.108-54.743-93.418c-66.97,0.709-133.582,0.427-202.735,11.833c-60,11-115-15-164-52
		c-35.458-27.275-65.132-59.507-103.296-81.671c-67.102,28.296-124.859,74.381-167.389,132.338
		c32.125,4.419,64.073,19.505,92.685,35.333C485.317,408,538.317,473,618.317,483z"/>
	<path fill="#FFC200" d="M769.317,600c-97,11-192,22-290,1c-74-16-123-68-186-109c-10.857-7.042-21.974-12.782-33.322-17.216
		c-6.563,26.554-10.479,54.152-11.438,82.501c7.218,4.655,13.632,10.45,18.761,17.715c51,77,107,155,202,165c101,10,202-13,299,22
		c60.205,22.219,117.843,56.764,179.171,74.553c51.499-57.984,86.38-131.047,97.224-211.728
		c-28.521-7.109-56.395-15.955-86.395-21.824C893.317,591,833.317,593,769.317,600z"/>
	<path fill="#FF0000" d="M1017.796,417.585c-19.114-2.01-38.262-4.005-57.479-5.584c-74-7-146,3-212,44c-40,25-84,32-130,27
		c-80-10-133-75-200-113c-28.612-15.828-60.561-30.914-92.685-35.333c-30.358,41.37-52.951,88.791-65.637,140.117
		c11.348,4.434,22.465,10.174,33.322,17.216c63,41,112,93,186,109c98,21,193,10,290-1c64-7,124-9,189,3
		c30,5.869,57.874,14.715,86.395,21.824c2.364-17.588,3.605-35.531,3.605-53.767C1048.317,516.681,1037.45,464.847,1017.796,417.585
		z"/>
	<path fill="#FF5400" d="M469.317,740c-95-10-151-88-202-165c-5.129-7.266-11.543-13.06-18.761-17.715
		c-0.155,4.573-0.24,9.163-0.24,13.772c0,90.581,30.115,174.126,80.87,241.181c57.974-7.684,114.16-8.928,173.13,3.762
		c52,11,92,48,142,66c70,26,143,25,216,21c4.241-0.248,8.466-0.572,12.678-0.965c27.476-18.688,52.495-40.713,74.493-65.482
		C886.16,818.764,828.522,784.219,768.317,762C671.317,727,570.317,750,469.317,740z"/>
</g>
<g id="Capa_4" display="none">
	<path display="inline" fill="#00465E" d="M645.317,882c-50-18-90-55-142-66c-58.971-12.689-115.156-11.446-173.13-3.763
		c73.03,96.481,188.798,158.819,319.13,158.819c83.292,0,160.635-25.462,224.678-69.021c-4.212,0.392-8.437,0.716-12.678,0.965
		C788.317,907,715.317,908,645.317,882z"/>
	<path display="inline" fill="#00B1D2" d="M762.317,240c-40.225-18.709-74.325-44.418-112.939-68.942c-0.021,0-0.041,0-0.061,0
		c-55.075,0-107.547,11.137-155.296,31.272c38.164,22.164,67.838,54.396,103.296,81.671c49,37,104,63,164,52
		c69.153-11.407,135.766-11.125,202.735-11.833c-19.193-24.434-41.175-46.572-65.459-65.948
		C851.708,262.082,805.091,260.457,762.317,240z"/>
	<path display="inline" fill="#00465E" d="M762.317,240c42.773,20.457,89.391,22.082,136.276,18.219
		c-68.354-54.538-154.976-87.147-249.216-87.161C687.992,195.582,722.093,221.291,762.317,240z"/>
	<path display="inline" fill="#DDDDDD" d="M619.317,483c46,5,90-2,130-27c66-41,138-51,212-44
		c19.217,1.58,38.364,3.575,57.479,5.584c-14.021-33.715-32.505-65.108-54.743-93.418c-66.97,0.709-133.582,0.427-202.735,11.833
		c-60,11-115-15-164-52c-35.458-27.275-65.132-59.507-103.296-81.671c-67.102,28.296-124.859,74.381-167.389,132.338
		c32.125,4.419,64.073,19.505,92.685,35.333C486.317,408,539.317,473,619.317,483z"/>
	<path display="inline" fill="#DDDDDD" d="M770.317,600c-97,11-192,22-290,1c-74-16-123-68-186-109
		c-10.857-7.042-21.974-12.782-33.322-17.216c-6.563,26.554-10.479,54.152-11.438,82.501c7.218,4.655,13.632,10.45,18.761,17.715
		c51,77,107,155,202,165c101,10,202-13,299,22c60.205,22.219,117.843,56.764,179.171,74.553
		c51.499-57.985,86.38-131.047,97.224-211.729c-28.521-7.109-56.395-15.955-86.395-21.824C894.317,591,834.317,593,770.317,600z"/>
	<path display="inline" fill="#00465E" d="M1018.796,417.584c-19.114-2.01-38.262-4.005-57.479-5.584c-74-7-146,3-212,44
		c-40,25-84,32-130,27c-80-10-133-75-200-113c-28.612-15.828-60.561-30.914-92.685-35.333
		c-30.358,41.37-52.951,88.791-65.637,140.117c11.348,4.434,22.465,10.174,33.322,17.216c63,41,112,93,186,109c98,21,193,10,290-1
		c64-7,124-9,189,3c30,5.869,57.874,14.715,86.395,21.824c2.364-17.588,3.605-35.531,3.605-53.767
		C1049.317,516.68,1038.45,464.846,1018.796,417.584z"/>
	<path display="inline" fill="#00B1D2" d="M470.317,740c-95-10-151-88-202-165c-5.129-7.266-11.543-13.06-18.761-17.715
		c-0.155,4.573-0.24,9.163-0.24,13.772c0,90.582,30.115,174.125,80.87,241.18c57.974-7.684,114.16-8.927,173.13,3.763
		c52,11,92,48,142,66c70,26,143,25,216,21c4.241-0.249,8.466-0.573,12.678-0.965c27.476-18.688,52.495-40.713,74.493-65.482
		C887.16,818.764,829.522,784.219,769.317,762C672.317,727,571.317,750,470.317,740z"/>
</g>
<g id="Capa_5" display="none">
	<path display="inline" fill="#8EDBFF" d="M644.635,882.001c-50-18-90-55-142-66c-58.971-12.689-115.156-11.446-173.13-3.763
		c73.03,96.481,188.798,158.819,319.13,158.819c83.292,0,160.635-25.462,224.678-69.021c-4.212,0.392-8.437,0.716-12.678,0.965
		C787.635,907.001,714.635,908.001,644.635,882.001z"/>
	<path display="inline" fill="#009FFF" d="M761.635,240.001c-40.225-18.709-74.325-44.418-112.939-68.942c-0.021,0-0.041,0-0.061,0
		c-55.075,0-107.547,11.137-155.296,31.272c38.164,22.164,67.838,54.396,103.296,81.671c49,37,104,63,164,52
		c69.153-11.407,135.766-11.125,202.735-11.833c-19.193-24.434-41.175-46.572-65.459-65.948
		C851.025,262.083,804.408,260.458,761.635,240.001z"/>
	<path display="inline" fill="#8EDBFF" d="M761.635,240.001c42.773,20.457,89.391,22.082,136.276,18.219
		c-68.354-54.538-154.976-87.147-249.216-87.161C687.31,195.583,721.41,221.292,761.635,240.001z"/>
	<path display="inline" fill="#004D81" d="M618.635,483.001c46,5,90-2,130-27c66-41,138-51,212-44
		c19.217,1.58,38.364,3.575,57.479,5.584c-14.021-33.715-32.505-65.108-54.743-93.418c-66.97,0.709-133.582,0.427-202.735,11.833
		c-60,11-115-15-164-52c-35.458-27.275-65.132-59.507-103.296-81.671c-67.102,28.296-124.859,74.381-167.389,132.338
		c32.125,4.419,64.073,19.505,92.685,35.333C485.635,408.001,538.635,473.001,618.635,483.001z"/>
	<path display="inline" fill="#004D81" d="M769.635,600.001c-97,11-192,22-290,1c-74-16-123-68-186-109
		c-10.857-7.042-21.974-12.782-33.322-17.216c-6.563,26.554-10.479,54.152-11.438,82.501c7.218,4.655,13.632,10.45,18.761,17.715
		c51,77,107,155,202,165c101,10,202-13,299,22c60.205,22.219,117.843,56.764,179.171,74.553
		c51.499-57.985,86.38-131.047,97.224-211.729c-28.521-7.109-56.395-15.955-86.395-21.824
		C893.635,591.001,833.635,593.001,769.635,600.001z"/>
	<path display="inline" fill="#8EDBFF" d="M1018.113,417.585c-19.114-2.01-38.262-4.005-57.479-5.584c-74-7-146,3-212,44
		c-40,25-84,32-130,27c-80-10-133-75-200-113c-28.612-15.828-60.561-30.914-92.685-35.333
		c-30.358,41.37-52.951,88.791-65.637,140.117c11.348,4.434,22.465,10.174,33.322,17.216c63,41,112,93,186,109c98,21,193,10,290-1
		c64-7,124-9,189,3c30,5.869,57.874,14.715,86.395,21.824c2.364-17.588,3.605-35.531,3.605-53.767
		C1048.635,516.681,1037.768,464.847,1018.113,417.585z"/>
	<path display="inline" fill="#009FFF" d="M469.635,740.001c-95-10-151-88-202-165c-5.129-7.266-11.543-13.06-18.761-17.715
		c-0.155,4.573-0.24,9.163-0.24,13.772c0,90.582,30.115,174.125,80.87,241.18c57.974-7.684,114.16-8.927,173.13,3.763
		c52,11,92,48,142,66c70,26,143,25,216,21c4.241-0.249,8.466-0.573,12.678-0.965c27.476-18.688,52.495-40.713,74.493-65.482
		c-61.328-17.789-118.966-52.334-179.171-74.553C671.635,727.001,570.635,750.001,469.635,740.001z"/>
</g>
<g id="Capa_6" display="none">
	<path display="inline" fill="#7CD500" d="M643.952,882.002c-50-18-90-55-142-66c-58.971-12.689-115.156-11.447-173.13-3.764
		c73.03,96.482,188.798,158.82,319.13,158.82c83.292,0,160.635-25.463,224.678-69.021c-4.212,0.391-8.437,0.715-12.678,0.965
		C786.952,907.002,713.952,908.002,643.952,882.002z"/>
	<path display="inline" fill="#573B15" d="M760.952,240.001c-40.225-18.709-74.325-44.418-112.939-68.942c-0.021,0-0.041,0-0.061,0
		c-55.075,0-107.547,11.137-155.296,31.272c38.164,22.164,67.838,54.396,103.296,81.671c49,37,104,63,164,52
		c69.153-11.407,135.766-11.125,202.735-11.833c-19.193-24.434-41.175-46.572-65.459-65.948
		C850.343,262.083,803.726,260.458,760.952,240.001z"/>
	<path display="inline" fill="#7CD500" d="M760.952,240.001c42.773,20.457,89.391,22.082,136.276,18.219
		c-68.354-54.538-154.976-87.147-249.216-87.161C686.627,195.583,720.728,221.292,760.952,240.001z"/>
	<path display="inline" fill="#3B6300" d="M617.952,483.001c46,5,90-2,130-27c66-41,138-51,212-44
		c19.217,1.58,38.364,3.575,57.479,5.584c-14.021-33.715-32.505-65.108-54.743-93.418c-66.97,0.709-133.582,0.427-202.735,11.833
		c-60,11-115-15-164-52c-35.458-27.275-65.132-59.507-103.296-81.671c-67.102,28.296-124.859,74.381-167.389,132.338
		c32.125,4.419,64.073,19.505,92.685,35.333C484.952,408.001,537.952,473.001,617.952,483.001z"/>
	<path display="inline" fill="#3B6300" d="M768.952,600.001c-97,11-192,22-290,1c-74-16-123-68-186-109
		c-10.857-7.042-21.974-12.782-33.322-17.216c-6.563,26.554-10.479,54.152-11.438,82.501c7.218,4.655,13.632,10.45,18.761,17.715
		c51,77,107,155,202,165c101,10,202-13,299,22c60.205,22.219,117.843,56.764,179.171,74.553
		c51.499-57.986,86.38-131.047,97.224-211.729c-28.521-7.109-56.395-15.955-86.395-21.824
		C892.952,591.001,832.952,593.001,768.952,600.001z"/>
	<path display="inline" fill="#7CD500" d="M1017.431,417.586c-19.114-2.01-38.262-4.005-57.479-5.584c-74-7-146,3-212,44
		c-40,25-84,32-130,27c-80-10-133-75-200-113c-28.612-15.828-60.561-30.914-92.685-35.333
		c-30.358,41.37-52.951,88.791-65.637,140.117c11.348,4.434,22.465,10.174,33.322,17.216c63,41,112,93,186,109c98,21,193,10,290-1
		c64-7,124-9,189,3c30,5.869,57.874,14.715,86.395,21.824c2.364-17.588,3.605-35.531,3.605-53.767
		C1047.952,516.682,1037.085,464.848,1017.431,417.586z"/>
	<path display="inline" fill="#573B15" d="M468.952,740.002c-95-10-151-88-202-165c-5.129-7.266-11.543-13.06-18.761-17.715
		c-0.155,4.573-0.24,9.163-0.24,13.772c0,90.582,30.115,174.125,80.87,241.18c57.974-7.684,114.16-8.926,173.13,3.764
		c52,11,92,48,142,66c70,26,143,25,216,21c4.241-0.25,8.466-0.574,12.678-0.965c27.476-18.688,52.495-40.713,74.493-65.482
		c-61.328-17.789-118.966-52.334-179.171-74.553C670.952,727.002,569.952,750.002,468.952,740.002z"/>
</g>
<g id="Capa_7">
	<g>
		<path d="M558.148,920.5c0,0-1.271,1.805-3.495,4.962c-1.104,1.573-2.443,3.483-3.979,5.675c-1.506,2.212-3.275,4.639-5.113,7.356
			c-0.934,1.344-1.908,2.744-2.915,4.192c-0.992,1.457-2.018,2.964-3.073,4.513c-2.159,3.055-4.267,6.396-6.59,9.74
			c-2.227,3.407-4.529,6.929-6.868,10.507c-2.247,3.632-4.7,7.212-6.889,10.953c-1.141,1.843-2.282,3.685-3.418,5.52
			c-1.095,1.858-2.186,3.71-3.269,5.547c-1.072,1.843-2.157,3.659-3.24,5.45c-1.007,1.829-1.995,3.642-3.002,5.407
			c-1.005,1.767-1.97,3.518-2.959,5.21c-0.909,1.732-1.799,3.428-2.665,5.078c-1.756,3.293-3.49,6.384-4.875,9.336
			c-1.455,2.922-2.819,5.6-4.059,7.97c-1.097,2.421-2.113,4.52-2.94,6.258c-0.813,1.741-1.524,3.092-1.979,4.024
			c-0.477,0.926-0.73,1.42-0.73,1.42s0.102-0.543,0.292-1.56c0.212-1.012,0.479-2.512,0.911-4.398
			c0.418-1.891,0.914-4.197,1.552-6.829c0.765-2.583,1.662-5.493,2.673-8.666c0.257-0.793,0.519-1.602,0.786-2.426
			c0.258-0.829,0.549-1.661,0.881-2.492c0.653-1.67,1.329-3.396,2.023-5.171c0.713-1.77,1.447-3.588,2.196-5.447
			c0.818-1.825,1.708-3.665,2.584-5.553c0.875-1.888,1.802-3.789,2.731-5.72c0.992-1.896,2.019-3.803,3.068-5.718
			c1.06-1.907,2.058-3.875,3.199-5.766c1.144-1.89,2.292-3.786,3.439-5.683c2.281-3.805,4.806-7.449,7.252-11.059
			c1.195-1.824,2.517-3.539,3.778-5.264c1.272-1.717,2.509-3.426,3.785-5.062c1.296-1.622,2.553-3.229,3.82-4.772
			c1.253-1.554,2.485-3.067,3.752-4.488c1.251-1.432,2.468-2.823,3.645-4.17c1.217-1.311,2.393-2.577,3.522-3.794
			c2.253-2.431,4.443-4.553,6.357-6.445c1.951-1.864,3.685-3.45,5.138-4.732c1.435-1.296,2.626-2.254,3.425-2.916
			C557.701,920.828,558.148,920.5,558.148,920.5z"/>
	</g>
	<g>
		<path d="M716.672,922.376c0,0,0.448,0.328,1.247,0.989s1.99,1.619,3.426,2.916c1.453,1.281,3.188,2.867,5.138,4.732
			c1.914,1.893,4.104,4.014,6.356,6.445c1.129,1.215,2.305,2.482,3.522,3.793c1.177,1.347,2.394,2.738,3.645,4.17
			c1.267,1.421,2.499,2.936,3.751,4.488c1.269,1.544,2.525,3.15,3.821,4.771c1.276,1.637,2.514,3.346,3.785,5.063
			c1.261,1.725,2.583,3.439,3.778,5.264c2.446,3.609,4.971,7.254,7.252,11.059c1.148,1.896,2.296,3.793,3.439,5.683
			c1.142,1.891,2.139,3.858,3.199,5.767c1.05,1.914,2.076,3.821,3.068,5.717c0.93,1.93,1.856,3.832,2.731,5.721
			c0.876,1.887,1.767,3.727,2.584,5.553c0.749,1.858,1.482,3.677,2.196,5.447c0.693,1.773,1.369,3.5,2.022,5.17
			c0.332,0.831,0.623,1.663,0.881,2.492c0.268,0.824,0.53,1.633,0.786,2.426c1.012,3.173,1.908,6.083,2.674,8.666
			c0.638,2.632,1.133,4.938,1.552,6.829c0.431,1.887,0.699,3.387,0.911,4.398c0.19,1.017,0.292,1.56,0.292,1.56
			s-0.254-0.494-0.73-1.42c-0.455-0.933-1.166-2.283-1.979-4.024c-0.827-1.738-1.844-3.837-2.94-6.258
			c-1.239-2.37-2.604-5.048-4.059-7.97c-1.385-2.952-3.118-6.043-4.875-9.336c-0.865-1.65-1.755-3.346-2.665-5.078
			c-0.989-1.693-1.954-3.443-2.959-5.211c-1.008-1.765-1.995-3.577-3.003-5.406c-1.082-1.791-2.167-3.607-3.239-5.451
			c-1.083-1.836-2.174-3.688-3.269-5.546c-1.137-1.835-2.277-3.677-3.419-5.52c-2.188-3.741-4.642-7.321-6.889-10.953
			c-2.339-3.578-4.641-7.099-6.867-10.507c-2.324-3.344-4.432-6.686-6.591-9.74c-1.054-1.549-2.08-3.056-3.072-4.513
			c-1.008-1.448-1.981-2.849-2.915-4.192c-1.838-2.717-3.606-5.145-5.113-7.356c-1.536-2.191-2.876-4.102-3.979-5.675
			C717.942,924.18,716.672,922.376,716.672,922.376z"/>
	</g>
	<ellipse stroke="#000000" stroke-width="5" stroke-miterlimit="10" cx="809.73" cy="1046.629" rx="70.308" ry="8.865"/>
	<ellipse stroke="#000000" stroke-width="5" stroke-miterlimit="10" cx="461.811" cy="1046.494" rx="70.308" ry="8.865"/>
	<g>
		<path d="M311.029,419.941c0,0-0.531-0.395-1.479-1.191c-0.945-0.8-2.342-1.969-4.024-3.559c-1.702-1.571-3.715-3.537-5.945-5.875
			c-2.209-2.353-4.7-5.024-7.215-8.109c-1.296-1.514-2.556-3.159-3.913-4.828c-1.292-1.714-2.647-3.478-3.954-5.352
			c-2.674-3.707-5.34-7.734-7.903-12.022c-2.517-4.312-5.104-8.796-7.331-13.559c-0.563-1.187-1.129-2.379-1.697-3.574
			c-0.527-1.214-1.057-2.432-1.587-3.652c-1.1-2.424-2.019-4.936-3.01-7.419c-0.949-2.499-1.743-5.056-2.618-7.571
			c-0.757-2.555-1.519-5.098-2.189-7.644c-1.326-5.099-2.322-10.191-3.092-15.143c-0.176-1.24-0.351-2.471-0.524-3.689
			c-0.086-0.609-0.172-1.215-0.258-1.818c-0.052-0.607-0.104-1.211-0.156-1.813c-0.173-2.407-0.438-4.749-0.519-7.042
			c-0.07-2.291-0.139-4.519-0.205-6.674c0.065-2.154,0.128-4.235,0.188-6.232c0.019-1.995,0.246-3.9,0.392-5.71
			c0.197-1.808,0.277-3.526,0.544-5.125c0.486-3.201,0.857-5.988,1.349-8.253c0.478-2.268,0.907-4.035,1.176-5.242
			c0.285-1.203,0.438-1.844,0.438-1.844s-0.034,0.66-0.097,1.898c-0.079,1.234-0.161,3.046-0.333,5.333
			c-0.11,1.142-0.097,2.418-0.127,3.801c-0.014,1.384-0.075,2.874-0.116,4.465c-0.076,1.589,0.046,3.29,0.063,5.071
			c0.065,1.783-0.017,3.653,0.156,5.604c0.122,1.946,0.248,3.973,0.378,6.072c0.212,2.088,0.431,4.247,0.657,6.466
			c0.549,4.424,1.282,9.061,2.197,13.823c0.111,0.596,0.223,1.194,0.335,1.794c0.137,0.596,0.275,1.193,0.414,1.793
			c0.277,1.2,0.555,2.408,0.835,3.623c0.257,1.22,0.609,2.426,0.945,3.642c0.324,1.218,0.649,2.443,0.976,3.672
			c0.69,2.448,1.504,4.882,2.235,7.349c0.862,2.427,1.65,4.89,2.576,7.304c0.928,2.414,1.781,4.857,2.817,7.219
			c0.498,1.189,0.995,2.375,1.491,3.559c0.535,1.167,1.068,2.33,1.6,3.488c1.042,2.327,2.192,4.581,3.262,6.843
			c1.114,2.24,2.266,4.429,3.412,6.575c1.189,2.123,2.338,4.224,3.522,6.248c0.588,1.016,1.169,2.02,1.744,3.013
			c0.599,0.979,1.19,1.945,1.773,2.899c2.364,3.797,4.666,7.356,6.885,10.582c0.558,0.805,1.104,1.593,1.638,2.364
			c0.546,0.762,1.08,1.507,1.6,2.233c1.018,1.472,2.049,2.817,2.988,4.109c1.94,2.53,3.616,4.763,5.07,6.542
			c1.447,1.784,2.588,3.191,3.396,4.124C310.598,419.442,311.029,419.941,311.029,419.941z"/>
	</g>
	<g>
		<path d="M986.26,416.941c0,0,0.431-0.499,1.238-1.436c0.809-0.933,1.95-2.339,3.396-4.124c1.454-1.778,3.131-4.011,5.07-6.541
			c0.938-1.293,1.97-2.638,2.988-4.109c0.52-0.726,1.053-1.471,1.6-2.232c0.533-0.771,1.08-1.56,1.638-2.364
			c2.22-3.226,4.521-6.785,6.885-10.581c0.583-0.954,1.175-1.921,1.773-2.899c0.574-0.992,1.155-1.997,1.743-3.013
			c1.185-2.024,2.334-4.125,3.522-6.248c1.147-2.146,2.299-4.335,3.413-6.574c1.069-2.263,2.221-4.517,3.262-6.843
			c0.531-1.159,1.064-2.322,1.6-3.488c0.496-1.184,0.993-2.37,1.491-3.559c1.036-2.362,1.889-4.806,2.817-7.219
			c0.926-2.414,1.714-4.877,2.575-7.304c0.73-2.468,1.545-4.901,2.235-7.35c0.327-1.229,0.652-2.453,0.976-3.671
			c0.336-1.216,0.688-2.422,0.944-3.643c0.28-1.215,0.559-2.423,0.835-3.623c0.139-0.6,0.276-1.198,0.414-1.793
			c0.112-0.601,0.224-1.199,0.335-1.795c0.916-4.763,1.648-9.399,2.197-13.823c0.226-2.219,0.445-4.378,0.657-6.466
			c0.13-2.098,0.257-4.125,0.378-6.072c0.173-1.951,0.092-3.82,0.156-5.604c0.017-1.782,0.139-3.482,0.063-5.071
			c-0.041-1.591-0.102-3.081-0.116-4.465c-0.029-1.382-0.017-2.659-0.126-3.801c-0.172-2.288-0.254-4.1-0.333-5.333
			c-0.063-1.238-0.097-1.898-0.097-1.898s0.152,0.642,0.438,1.844c0.269,1.207,0.698,2.974,1.177,5.242
			c0.491,2.266,0.862,5.053,1.349,8.254c0.267,1.599,0.347,3.317,0.543,5.125c0.146,1.81,0.373,3.716,0.393,5.71
			c0.061,1.998,0.123,4.079,0.188,6.232c-0.066,2.155-0.135,4.383-0.205,6.674c-0.08,2.293-0.347,4.635-0.52,7.042
			c-0.051,0.601-0.104,1.206-0.155,1.813c-0.086,0.603-0.172,1.209-0.258,1.817c-0.173,1.219-0.348,2.449-0.523,3.689
			c-0.771,4.951-1.768,10.044-3.093,15.143c-0.67,2.546-1.432,5.089-2.189,7.644c-0.874,2.516-1.668,5.072-2.617,7.571
			c-0.991,2.482-1.909,4.995-3.01,7.419c-0.53,1.22-1.06,2.438-1.588,3.651c-0.567,1.195-1.133,2.388-1.696,3.574
			c-2.228,4.763-4.814,9.247-7.331,13.559c-2.563,4.289-5.229,8.315-7.902,12.022c-1.307,1.874-2.661,3.638-3.954,5.353
			c-1.356,1.669-2.617,3.314-3.912,4.828c-2.516,3.085-5.006,5.757-7.215,8.109c-2.23,2.338-4.244,4.303-5.945,5.875
			c-1.682,1.59-3.08,2.759-4.024,3.559C986.791,416.547,986.26,416.941,986.26,416.941z"/>
	</g>
	<path d="M253.471,288.118c-9.75-7.34-23.486-9.784-30.77-20.332c5.319-0.711,17.67,5.766,20.51,4.255
		c5.589-2.973,2.795-18.59,3.164-24.912c7.862,2.829,9.245,13.887,17.029,16.35c14.896,4.711,10.244-14.435,22.42-13.586
		c14.391,1.002,5.636,17.536-1.471,22.452c-10.049,6.952-20.091,4.167-26.722,15.517C256.153,288.3,254.953,287.88,253.471,288.118"
		/>
	<path d="M1042.665,270.623c9.751-7.34,23.486-9.783,30.771-20.332c-5.32-0.711-17.67,5.766-20.51,4.255
		c-5.59-2.973-2.796-18.59-3.164-24.912c-7.862,2.829-9.244,13.887-17.029,16.35c-14.896,4.711-10.243-14.435-22.421-13.586
		c-14.391,1.002-5.636,17.536,1.471,22.452c10.05,6.952,20.092,4.167,26.723,15.517
		C1039.982,270.806,1041.184,270.387,1042.665,270.623"/>
	<g>
		<path d="M508.895,416.122c0,0,0.077-0.463,0.275-1.314c0.21-0.846,0.493-2.104,0.966-3.664c0.929-3.126,2.463-7.537,4.92-12.605
			c2.478-5.051,5.811-10.822,10.715-16.313c1.23-1.373,2.551-2.722,4.022-4.001c1.463-1.285,3.037-2.529,4.789-3.628
			c3.476-2.202,7.677-3.979,12.332-4.325c4.632-0.335,9.389,0.864,13.108,3.043c3.801,2.106,6.747,4.932,9.163,7.791
			c2.421,2.874,4.336,5.85,5.929,8.732c1.554,2.903,2.867,5.688,3.878,8.321c1.039,2.623,1.855,5.06,2.489,7.243
			c0.664,2.172,1.107,4.104,1.481,5.686c0.365,1.585,0.555,2.861,0.726,3.713c0.143,0.862,0.219,1.321,0.219,1.321
			s-0.262-0.386-0.754-1.11c-0.472-0.727-1.164-1.793-2.045-3.15c-0.87-1.344-1.927-2.976-3.139-4.847
			c-0.609-0.927-1.223-1.925-1.931-2.938c-0.688-1.024-1.379-2.113-2.167-3.201c-0.378-0.551-0.765-1.114-1.158-1.687
			c-0.407-0.559-0.822-1.128-1.244-1.708c-0.824-1.169-1.731-2.318-2.646-3.504c-1.847-2.348-3.898-4.684-6.123-6.821
			c-1.121-1.064-2.286-2.054-3.487-2.976c-1.231-0.847-2.464-1.697-3.746-2.3c-2.564-1.271-5.174-1.846-7.822-1.639
			c-2.655,0.137-5.395,1.193-8.057,2.646c-1.318,0.76-2.618,1.628-3.885,2.557c-1.266,0.93-2.464,1.979-3.659,3.012
			c-2.351,2.119-4.545,4.37-6.556,6.614c-2.024,2.233-3.867,4.459-5.555,6.546c-3.368,4.185-6.09,7.845-8.011,10.42
			C509.997,414.636,508.895,416.122,508.895,416.122z"/>
	</g>
	<g>
		<path d="M708.631,423.334c0,0,0.076-0.463,0.275-1.314c0.211-0.846,0.493-2.104,0.967-3.664c0.929-3.126,2.463-7.536,4.92-12.605
			c2.478-5.051,5.811-10.822,10.716-16.313c1.229-1.372,2.55-2.722,4.022-4c1.463-1.286,3.036-2.529,4.788-3.628
			c3.476-2.202,7.677-3.979,12.332-4.325c2.31-0.158,4.664,0.05,6.898,0.574c2.255,0.493,4.319,1.43,6.21,2.469
			c3.801,2.106,6.747,4.932,9.162,7.791c2.422,2.874,4.337,5.85,5.93,8.732c1.554,2.903,2.866,5.688,3.878,8.321
			c1.039,2.623,1.855,5.06,2.489,7.243c0.664,2.172,1.106,4.104,1.481,5.686c0.365,1.585,0.555,2.861,0.726,3.713
			c0.143,0.862,0.219,1.321,0.219,1.321s-0.262-0.386-0.754-1.11c-0.472-0.727-1.164-1.793-2.045-3.151
			c-0.87-1.343-1.927-2.975-3.139-4.846c-0.609-0.927-1.224-1.925-1.931-2.938c-0.688-1.024-1.38-2.113-2.167-3.201
			c-0.378-0.551-0.765-1.114-1.158-1.687c-0.407-0.559-0.822-1.128-1.244-1.708c-0.823-1.169-1.73-2.318-2.646-3.504
			c-1.848-2.348-3.898-4.684-6.123-6.821c-1.121-1.065-2.286-2.054-3.487-2.976c-1.23-0.847-2.464-1.697-3.745-2.3
			c-2.564-1.271-5.175-1.846-7.822-1.639c-2.655,0.137-5.395,1.194-8.057,2.646c-1.318,0.76-2.618,1.628-3.886,2.557
			c-1.266,0.93-2.464,1.979-3.658,3.012c-2.351,2.119-4.545,4.371-6.556,6.614c-2.024,2.232-3.867,4.458-5.556,6.546
			c-3.368,4.185-6.09,7.845-8.011,10.42C709.732,421.849,708.631,423.334,708.631,423.334z"/>
	</g>
	<g>
		<path d="M572.051,690.79c0,0,0.528,0.261,1.517,0.749c0.98,0.499,2.452,1.17,4.293,2.056c1.843,0.884,4.119,1.881,6.702,3.048
			c2.601,1.134,5.52,2.424,8.741,3.73c3.206,1.338,6.708,2.699,10.417,4.098c3.719,1.375,7.644,2.788,11.742,4.116
			c2.039,0.695,4.144,1.296,6.248,1.979c2.128,0.605,4.272,1.25,6.444,1.848c2.179,0.576,4.369,1.177,6.586,1.696
			c1.106,0.271,2.214,0.541,3.323,0.813l3.352,0.708c4.458,1.003,8.963,1.738,13.399,2.441c1.107,0.193,2.222,0.287,3.324,0.436
			c1.104,0.146,2.202,0.293,3.293,0.438c2.192,0.212,4.357,0.423,6.486,0.629c2.138,0.135,4.239,0.268,6.296,0.396
			c2.063,0.061,4.082,0.119,6.048,0.176c1.97-0.01,3.886-0.019,5.739-0.028c1.86,0.021,3.644-0.149,5.373-0.192
			c0.864-0.035,1.71-0.069,2.538-0.103c0.824-0.07,1.629-0.138,2.414-0.204c1.578-0.125,3.074-0.244,4.481-0.355
			c2.792-0.368,5.272-0.566,7.293-0.858c2.008-0.339,3.615-0.537,4.705-0.703c1.098-0.146,1.683-0.223,1.683-0.223
			s-0.541,0.231-1.555,0.665c-1.022,0.412-2.513,1.063-4.446,1.805c-1.938,0.721-4.332,1.475-7.095,2.35
			c-1.389,0.398-2.887,0.739-4.462,1.145c-0.79,0.192-1.601,0.39-2.431,0.592c-0.838,0.161-1.695,0.325-2.57,0.494
			c-1.757,0.304-3.586,0.697-5.496,0.933c-1.911,0.239-3.893,0.484-5.934,0.704c-2.049,0.134-4.152,0.271-6.304,0.411
			c-2.153,0.062-4.356,0.056-6.6,0.085c-2.239-0.056-4.517-0.154-6.821-0.265c-2.297-0.191-4.63-0.351-6.966-0.631
			c-4.672-0.553-9.396-1.312-14.063-2.315l-3.494-0.776c-1.155-0.294-2.308-0.588-3.459-0.882c-2.313-0.548-4.562-1.288-6.813-1.942
			c-4.479-1.386-8.825-2.938-12.95-4.622c-4.141-1.646-8.045-3.464-11.703-5.257c-3.644-1.827-7.03-3.658-10.083-5.471
			c-6.124-3.594-10.947-7.023-14.209-9.558c-1.647-1.243-2.875-2.312-3.72-3.023C572.475,691.201,572.051,690.79,572.051,690.79z"/>
	</g>
</g>
<g id="Capa_8">
	<text transform="matrix(1 0 0 1 588.1484 1191.8818)" font-family="'ArialMT'" font-size="72">GIT</text>
</g>
<g id="colores" display="none">
</g>
</svg>
