<?xml version="1.0" encoding="utf-8"?>
<!-- Generator: Adobe Illustrator 16.0.3, SVG Export Plug-In . SVG Version: 6.00 Build 0)  -->
<!DOCTYPE svg PUBLIC "-//W3C//DTD SVG 1.1//EN" "http://www.w3.org/Graphics/SVG/1.1/DTD/svg11.dtd">
<svg version="1.1" xmlns="http://www.w3.org/2000/svg" xmlns:xlink="http://www.w3.org/1999/xlink" x="0px" y="0px"
	 width="1111.865px" height="1500px" viewBox="0 0 1111.865 1500" enable-background="new 0 0 1111.865 1500" xml:space="preserve">
<g id="Capa_2" display="none">
	<rect display="inline" fill="#95D4F4" width="1111.865" height="1500"/>
	<path display="inline" fill="#4393D0" d="M0,1022.501c0,0,33.898-20.738,98.305-74.976s91.525-76.271,128.813-71.187
		s71.187-13.56,98.305-16.949s59.322-3.389,100,44.068s71.186,66.101,105.084,88.135s20.34,38.983,76.271,27.119
		s38.983-22.034,108.475-22.034s38.982,11.865,118.644-6.779s67.797-18.645,127.119-10.17s49.911-15.255,86.44,16.949
		s64.407,50.189,64.407,50.189V1500H0V1022.501z"/>
	<path display="inline" fill="#0B4F80" d="M0,1133.966c0,0,8.474,10.17,59.322,0s76.272-20.339,83.051-20.339
		s18.645,7.91,35.593,12.43s22.034,9.604,47.458-12.43s25.424-10.17,45.763-38.983s-3.39-20.339,37.288-49.152
		s28.813-57.628,57.627-27.119s22.034,52.494,44.068,63.535s20.339,4.263,50.848,31.381s27.118,42.373,50.847,37.288
		s-3.39-6.779,44.068-5.085s40.679,20.905,67.797,12.995s3.389-12.014,38.982,1.902s3.391,32.561,69.492,22.391
		s72.882,1.694,91.525-25.424s13.56-32.202,37.288-44.067s11.864-22.034,52.542-27.119s57.627-8.474,83.051,1.695
		s59.321,25.424,66.102,28.813s49.153,22.034,49.153,22.034V1500H0V1133.966z"/>
	<g display="inline">
		<path fill="#117633" d="M117.724,1341.782c0,0-0.059-0.01-0.176-0.028c-0.114-0.016-0.293-0.053-0.538-0.111
			c-0.497-0.118-1.176-0.332-2.066-0.619c-1.738-0.628-4.288-1.701-7.158-3.61c-1.505-0.901-2.943-2.111-4.607-3.403
			c-1.507-1.396-3.261-2.879-4.811-4.69c-3.316-3.509-6.372-7.976-9.217-13.114c-0.65-1.304-1.299-2.645-1.946-4.021
			c-0.319-0.69-0.642-1.387-0.967-2.09c-0.272-0.719-0.547-1.443-0.824-2.174c-0.545-1.466-1.098-2.96-1.592-4.498
			c-0.486-1.538-0.804-3.137-1.146-4.754c-0.308-1.621-0.668-3.262-0.814-4.947c-0.129-1.689-0.25-3.396-0.309-5.123
			c-0.206-3.446,0.103-6.979,0.227-10.512c0.043-0.896,0.084-1.744,0.103-2.677c0.057-0.864,0.118-1.731,0.148-2.599
			c0.091-1.738,0.112-3.48,0.117-5.232c-0.013-3.501-0.27-7.018-0.711-10.543c-0.441-3.534-1.074-7.035-1.792-10.615
			c-0.679-3.59-1.607-7.188-2.513-10.817c-0.821-3.583-1.598-7.175-2.346-10.755c-0.768-3.536-1.401-7.06-1.898-10.561
			c-0.476-3.499-0.947-6.971-1.413-10.401c-0.269-1.667-0.536-3.323-0.801-4.969c-0.257-1.702-0.542-3.389-0.762-5.066
			c-0.452-3.308-0.897-6.561-1.333-9.744c-0.405-3.126-0.718-6.193-0.937-9.195c-0.582-6.04-0.914-11.847-1.22-17.203
			c-0.332-5.358-0.429-10.326-0.571-14.735c-0.052-2.208-0.057-4.287-0.053-6.216c-0.008-1.924-0.007-3.697,0.029-5.31
			c0.08-3.229,0.157-5.771,0.276-7.531c0.059-0.878,0.103-1.551,0.133-2.005c0.04-0.457,0.061-0.692,0.061-0.692l1.746-0.438
			c0,0,2.102,3.219,4.88,9.121c0.7,1.474,1.436,3.118,2.228,4.915c0.748,1.804,1.537,3.763,2.34,5.868
			c1.647,4.204,3.187,9.025,4.768,14.32c0.801,2.646,1.469,5.438,2.168,8.329c0.696,2.898,1.397,5.872,1.968,9.01
			c0.553,3.151,1.034,6.405,1.441,9.74c0.194,1.66,0.411,3.371,0.526,5.045c0.117,1.657,0.16,3.338,0.244,5.028
			c0.088,1.69,0.112,3.401,0.167,5.121c0.042,1.776,0.083,3.566,0.126,5.367c-0.03,3.519-0.06,7.081-0.09,10.671
			c-0.052,3.59-0.237,7.213-0.554,10.851c-0.389,3.6-0.827,7.217-1.287,10.842c-0.284,3.561-0.591,7.151-0.651,10.725
			c-0.083,3.58,0.197,7.183,0.508,10.712c0.347,3.535,0.873,7.022,1.632,10.442c0.391,1.708,0.797,3.404,1.269,5.081
			c0.221,0.84,0.472,1.673,0.718,2.504c0.255,0.756,0.546,1.587,0.83,2.366c1.16,3.152,2.149,6.251,3.444,9.149
			c0.601,1.461,1.132,2.909,1.648,4.336c0.508,1.428,1.108,2.788,1.576,4.168c1.837,5.529,3.488,10.651,5.151,15.385
			c1.813,4.622,3.421,8.954,5.224,12.612c0.414,0.943,0.827,1.856,1.284,2.689c0.431,0.867,0.846,1.704,1.246,2.507
			c0.43,0.79,0.843,1.548,1.237,2.271c0.197,0.37,0.39,0.73,0.578,1.083c0.202,0.34,0.4,0.672,0.592,0.994
			c1.496,2.661,2.88,4.651,3.826,6.071c0.482,0.701,0.865,1.23,1.118,1.563c0.123,0.179,0.225,0.316,0.305,0.409
			c0.075,0.092,0.114,0.139,0.114,0.139L117.724,1341.782z"/>
	</g>
	<g display="inline">
		<path fill="#117633" d="M992.042,1215.17c0,0-0.114-0.159-0.315-0.514c-0.204-0.355-0.484-0.891-0.82-1.584
			c-0.657-1.402-1.528-3.508-2.271-6.302c-0.781-2.789-1.362-6.259-1.648-10.291c-0.18-4.016-0.131-8.615,0.687-13.514
			c0.708-4.921,2.108-10.144,4.234-15.391c0.589-1.286,1.235-2.567,1.896-3.855c0.692-1.274,1.315-2.599,2.165-3.819
			c0.8-1.246,1.648-2.479,2.48-3.728c0.422-0.62,0.827-1.254,1.271-1.865c0.463-0.599,0.928-1.2,1.395-1.804
			c1.815-2.397,3.661-4.835,5.529-7.302c0.912-1.216,1.795-2.461,2.663-3.724c0.87-1.27,1.771-2.535,2.609-3.845
			c3.425-5.195,6.62-10.635,9.593-16.229c2.99-5.58,5.917-11.126,8.848-16.364c2.96-5.235,5.368-10.466,7.044-15.569
			c0.217-0.636,0.456-1.264,0.653-1.896c0.157-0.641,0.324-1.274,0.502-1.901c0.34-1.258,0.736-2.49,0.936-3.744
			c0.241-1.247,0.528-2.471,0.738-3.695c0.162-1.236,0.323-2.457,0.481-3.662l0.128-0.902l0.058-0.908
			c0.035-0.606,0.071-1.208,0.106-1.805c0.037-0.599,0.073-1.193,0.109-1.782l0.059-0.884l-0.012-0.886
			c-0.012-1.182-0.022-2.344-0.033-3.483c-0.006-0.566,0.022-1.157-0.009-1.691c-0.031-0.602-0.062-1.197-0.091-1.787
			c-0.195-4.662-0.373-8.936-0.531-12.724c-0.198-3.765-0.35-7.071-0.597-9.742c-0.256-2.667-0.557-4.749-0.942-6.027
			c-0.079-0.35-0.192-0.56-0.275-0.804c-0.085-0.169-0.186-0.379-0.229-0.429c-0.126-0.175-0.021-0.16,0.074-0.229l-0.502-0.979
			c0.072-0.076,0.636-0.229,1.151,0.043c0.535,0.243,1.057,0.712,1.594,1.349c1.069,1.287,2.233,3.297,3.398,5.936
			c1.21,2.632,2.33,5.884,3.472,9.654c0.536,1.884,1.125,3.891,1.622,6.038c0.257,1.067,0.542,2.178,0.782,3.294
			c0.235,1.105,0.478,2.238,0.724,3.394c0.116,0.579,0.234,1.164,0.354,1.755c0.137,0.656,0.203,1.281,0.309,1.936
			c0.177,1.303,0.357,2.631,0.54,3.981c0.242,1.345,0.178,2.765,0.255,4.186c0.021,0.715,0.044,1.434,0.065,2.159l0.026,1.093
			l-0.078,1.104c-0.118,1.48-0.238,2.98-0.359,4.499c-0.214,1.51-0.559,3.022-0.845,4.56c-0.242,1.553-0.801,3.032-1.252,4.555
			c-0.232,0.76-0.478,1.52-0.734,2.278c-0.286,0.743-0.612,1.471-0.919,2.21c-2.464,5.925-5.835,11.484-9.507,16.677
			c-3.661,5.226-7.929,9.985-12.189,14.663c-4.248,4.684-8.322,9.494-11.743,14.598c-0.875,1.264-1.7,2.549-2.512,3.841
			c-0.781,1.318-1.539,2.643-2.26,3.98c-0.369,0.663-0.705,1.345-1.058,2.013c-0.166,0.326-0.37,0.689-0.496,0.987l-0.447,1.02
			c-0.593,1.354-1.158,2.708-1.698,4.054c-0.271,0.67-0.54,1.338-0.809,2.002c-0.247,0.673-0.454,1.359-0.683,2.03
			c-0.451,1.344-0.872,2.679-1.329,3.973c-0.486,1.283-0.8,2.61-1.207,3.877c-0.396,1.271-0.812,2.512-1.24,3.726
			c-0.345,1.241-0.723,2.447-1.107,3.633c-0.401,1.179-0.812,2.336-1.128,3.495c-0.668,2.31-1.395,4.526-1.874,6.703
			c-1.179,4.317-1.866,8.355-2.488,11.973c-0.216,1.808-0.54,3.521-0.655,5.106c-0.079,0.795-0.189,1.563-0.248,2.297
			c-0.055,0.736-0.106,1.438-0.155,2.104c-0.122,1.343-0.116,2.534-0.202,3.599c-0.02,1.046-0.049,1.959-0.036,2.686
			c-0.014,0.744,0.001,1.297,0.013,1.672c-0.003,0.38,0.018,0.59,0.019,0.59L992.042,1215.17z"/>
	</g>
	<g display="inline">
		<path fill="#117633" d="M162.391,1045.064c0.144,1.598,0.248,3.192,0.355,4.787l0.42,4.76c0.263,3.165,0.496,6.316,0.693,9.458
			c0.577,6.314,1.092,12.624,1.539,18.913l0.31,4.716c0.105,1.571,0.305,3.146,0.427,4.718l0.822,9.43l0.734,9.42l0.645,9.413
			c0.222,3.33,0.43,6.342,0.605,9.591c0.11,3.277,0.291,6.569,0.244,9.848c0.109,6.543-0.349,13.193-1.041,19.832
			c-0.466,3.311-0.927,6.629-1.621,9.893c-0.63,3.288-1.501,6.479-2.34,9.687l-1.446,4.713l-0.738,2.348l-0.817,2.3l-1.646,4.588
			l-1.772,4.502c-2.374,5.993-4.986,11.818-7.581,17.639l-7.802,17.399c-1.294,2.897-2.536,5.815-3.779,8.729l-1.823,4.388
			l-0.908,2.195l-0.448,1.1l-0.22,0.552l-0.027,0.069c0.047-0.144-0.001,0,0.002-0.014l-0.051,0.14l-0.102,0.279
			c-2.165,5.947-4.443,11.932-5.86,17.922c-0.401,1.498-0.817,2.993-1.193,4.499c-0.317,1.522-0.59,3.058-0.888,4.586
			c-0.596,3.058-1.171,6.121-1.443,9.213l-0.476,4.627c-0.098,0.77-0.134,1.541-0.146,2.313l-0.058,2.315l-0.1,4.62l0.274,4.59
			l0.139,2.287c0.042,0.762,0.201,1.509,0.297,2.262l0.659,4.494l1.036,4.378l0.26,1.088l0.344,1.058l0.681,2.107
			c0.906,2.801,2.111,5.449,3.444,7.933c0.318,0.632,0.724,1.189,1.076,1.786l0.542,0.879l0.592,0.808
			c0.39,0.543,0.779,1.08,1.192,1.525c0.2,0.222,0.405,0.505,0.588,0.664c0.166,0.162,0.44,0.455,0.4,0.375l-10.125,3.4
			c0.469-5.819,0.958-11.527,1.62-17.261c0.632-5.728,1.398-11.435,2.232-17.136c0.881-5.693,1.815-11.381,2.849-17.057
			c0.489-2.843,1.036-5.678,1.579-8.515c0.537-2.838,1.076-5.676,1.678-8.508c0.598-2.832,1.141-5.672,1.794-8.499l1.936-8.487
			c1.421-5.643,2.813-11.292,4.505-16.907l1.24-4.211l1.374-4.2c0.919-2.804,1.826-5.589,2.933-8.367l1.597-4.169l0.8-2.084
			c0.254-0.679,0.538-1.325,0.814-1.985l3.296-7.855l13.194-31.408l6.571-15.71l6.49-15.735c2.146-5.251,4.252-10.513,6.348-15.778
			c2.08-5.271,4.125-10.553,6.08-15.859c1.928-5.313,3.884-10.625,5.495-16.018c0.809-2.688,1.635-5.392,2.24-8.116
			c0.63-2.721,1.198-5.472,1.348-8.235l1.793-0.164c0.639,2.935,0.729,5.904,0.738,8.847c-0.01,2.952-0.228,5.864-0.468,8.785
			c-0.616,5.804-1.449,11.568-2.531,17.265c-1.061,5.703-2.294,11.357-3.648,16.972c-1.335,5.621-2.807,11.198-4.337,16.755
			c-1.537,5.553-3.163,11.075-4.853,16.574c-1.67,5.506-3.463,10.966-5.252,16.427c-1.844,5.44-3.659,10.892-5.619,16.287
			c-1.951,5.398-3.862,10.813-5.942,16.16l-3.093,8.028l-0.774,1.99l-0.721,1.917l-1.445,3.833
			c-1.014,2.523-1.801,5.192-2.737,7.785l-1.36,3.913l-1.249,3.98c-1.734,5.274-3.298,10.652-4.897,16.017l-2.284,8.106
			c-0.764,2.702-1.452,5.437-2.187,8.153c-0.74,2.716-1.421,5.453-2.101,8.191c-0.686,2.736-1.376,5.473-2.01,8.227
			c-1.311,5.495-2.558,11.012-3.796,16.535l-3.746,16.58c-1.242,5.521-2.521,11.092-3.678,16.57l-2.483,11.771l-7.642-8.371
			c-0.593-0.649-0.8-0.985-1.141-1.432c-0.339-0.438-0.558-0.826-0.829-1.24c-0.544-0.818-0.982-1.633-1.409-2.446l-0.643-1.221
			l-0.546-1.232c-0.348-0.823-0.754-1.633-1.042-2.463c-0.556-1.665-1.24-3.298-1.623-4.978c-0.428-1.671-0.943-3.319-1.195-5
			l-0.46-2.503l-0.227-1.248l-0.136-1.254l-0.516-4.995l-0.169-4.971c-0.014-0.825-0.08-1.651-0.055-2.474l0.083-2.462l0.163-4.91
			l0.476-4.863l0.229-2.426c0.06-0.811,0.143-1.617,0.289-2.414l0.75-4.794l0.353-2.397l0.177-1.198l0.252-1.182
			c0.339-1.575,0.675-3.149,0.988-4.729c0.326-1.576,0.626-3.156,0.973-4.729c0.425-1.559,0.81-3.127,1.209-4.692l1.192-4.7
			c0.212-0.774,0.356-1.59,0.593-2.342l0.679-2.276c0.922-3.03,1.773-6.083,2.633-9.134l2.759-9.204l2.618-9.163
			c1.719-6.118,3.365-12.258,5.033-18.37l4.879-18.262c1.637-6.048,3.118-12.014,4.519-17.935c0.61-2.959,1.344-5.898,1.821-8.85
			c0.646-2.932,0.988-5.9,1.49-8.849l0.539-4.466c0.084-0.746,0.19-1.486,0.256-2.237l0.171-2.26l0.353-4.525l0.228-4.574
			c0.094-1.525,0.134-3.05,0.151-4.574c0.02-1.524,0.083-3.05,0.124-4.577l0.061-9.402l0.182-9.582l0.271-9.575
			c0.26-6.384,0.355-12.749,0.994-19.131c0.574-6.377,1.14-12.736,1.906-19.087c0.448-3.188,0.932-6.364,1.445-9.527
			c0.485-3.172,1.087-6.304,1.795-9.426L162.391,1045.064z"/>
	</g>
	<g display="inline">
		<path fill="#117633" d="M120.687,1341.379c0,0-0.214-0.267-0.63-0.784c-0.406-0.531-0.994-1.334-1.732-2.38
			c-1.483-2.101-3.485-5.271-5.744-9.47c-2.246-4.2-4.712-9.442-7.042-15.66c-2.27-6.228-4.553-13.399-6.18-21.44
			c-1.66-8.02-2.997-16.887-2.918-26.341c0.033-2.362,0.117-4.755,0.271-7.171c0.262-2.42,0.545-4.862,0.889-7.318
			c0.268-2.459,0.852-4.924,1.355-7.402c0.259-1.235,0.52-2.477,0.781-3.724l0.395-1.866l0.111-0.529l0.117-0.452l0.234-0.905
			c0.631-2.416,1.235-4.856,1.802-7.319c0.604-2.475,1.234-5.009,1.789-7.532c0.255-1.271,0.562-2.53,0.867-3.792
			c0.287-1.265,0.567-2.534,0.83-3.809c0.524-2.55,1.129-5.098,1.609-7.681c1.093-5.131,2.234-10.316,3.049-15.437
			c0.4-2.56,0.678-5.087,0.796-7.59c0.008-1.253,0.071-2.493,0.021-3.736l-0.19-3.712l-0.449-3.719
			c-0.119-1.224-0.415-2.489-0.606-3.723c-0.359-2.464-0.967-4.979-1.474-7.453c-1.119-5.013-2.234-10.006-3.34-14.96l-0.403-1.864
			l-0.42-1.767c-0.298-1.261-0.596-2.518-0.893-3.772c-0.297-1.254-0.593-2.505-0.888-3.753c-0.295-1.247-0.635-2.411-0.948-3.614
			c-0.633-2.384-1.263-4.753-1.889-7.105c-0.669-2.385-1.363-4.742-1.988-7.096c-0.321-1.174-0.641-2.344-0.958-3.508
			c-0.344-1.162-0.67-2.321-0.979-3.48c-0.621-2.316-1.272-4.601-1.85-6.877c-1.255-4.541-2.344-9.013-3.431-13.377
			c-2.145-8.729-4.032-17.045-5.774-24.741c-1.694-7.708-3.197-14.808-4.438-21.14c-1.251-6.328-2.244-11.888-3.007-16.491
			c-0.774-4.599-1.279-8.254-1.635-10.745c-0.333-2.498-0.479-3.842-0.479-3.842l1.696-0.602c0,0,0.181,0.287,0.532,0.844
			c0.337,0.561,0.837,1.393,1.49,2.479c1.261,2.187,3.108,5.397,5.279,9.554c2.172,4.155,4.711,9.242,7.411,15.159
			c2.7,5.916,5.603,12.648,8.514,20.091c0.718,1.864,1.451,3.768,2.197,5.707c0.708,1.955,1.429,3.945,2.163,5.971
			c1.487,4.044,2.873,8.281,4.273,12.645c1.409,4.359,2.667,8.908,3.93,13.555c1.139,4.696,2.36,9.461,3.314,14.41
			c0.516,2.463,0.973,4.96,1.461,7.467c0.431,2.562,0.865,5.141,1.302,7.735c0.206,1.29,0.45,2.614,0.625,3.885
			c0.174,1.271,0.348,2.544,0.523,3.821c0.175,1.276,0.35,2.557,0.526,3.84l0.277,2.056l0.207,1.979
			c1.19,10.495,1.505,21.56-0.024,32.79c-0.789,5.626-2.342,11.106-3.943,16.205c-1.622,5.108-3.109,10.064-4.266,15.081
			c-1.14,5.006-1.947,10.062-2.339,15.081c-0.17,2.517-0.344,4.981-0.386,7.49c-0.032,2.527-0.023,5.042,0.019,7.539l0.014,0.935
			l0.007,0.468c0.004,0.009-0.007,0.143,0.009,0.051l0.007,0.113l0.014,0.228l0.11,1.81c0.072,1.199,0.143,2.393,0.214,3.58
			c0.069,1.182,0.139,2.357,0.207,3.526c0.036,1.164,0.245,2.332,0.331,3.482c0.243,2.306,0.425,4.574,0.588,6.808
			c0.215,2.236,0.5,4.44,0.652,6.611c0.078,1.086,0.156,2.164,0.232,3.234c0.107,1.069,0.229,2.13,0.313,3.186
			c0.205,2.106,0.302,4.189,0.451,6.236c0.201,2.045,0.398,4.055,0.591,6.028c0.126,1.983,0.39,3.915,0.623,5.813
			c0.779,7.615,1.852,14.589,2.745,20.825c0.508,3.104,0.903,6.046,1.388,8.743c0.401,2.725,0.87,5.204,1.23,7.479
			c1.585,9.152,2.492,14.383,2.492,14.383L120.687,1341.379z"/>
	</g>
	<g display="inline">
		<path fill="#117633" d="M122.383,1061.813c2.036,5.415,3.824,10.892,5.491,16.401c1.653,5.513,3.184,11.06,4.597,16.635
			c2.83,11.151,5.208,22.417,7.14,33.792c0.456,2.849,0.933,5.698,1.349,8.555l1.156,8.603c0.378,2.867,0.609,5.769,0.921,8.653
			c0.333,2.882,0.509,5.798,0.695,8.708l0.275,4.37l0.158,4.402l0.117,4.403l0.018,2.071c0.01,0.713,0.008,1.426,0,2.139
			l0.098,8.144c0.054,2.729,0.127,5.441,0.238,8.171c0.201,5.44,0.717,10.996,0.791,17.226c0.02,3.09-0.175,6.241-0.587,9.286
			c-0.414,3.051-0.984,6.012-1.665,8.897c-1.33,5.783-2.92,11.34-4.463,16.894c-1.574,5.54-3.03,11.08-4.538,16.604
			c-0.693,2.78-1.476,5.529-2.143,8.315c-0.35,1.388-0.722,2.769-1.049,4.163l-0.505,2.088l-0.126,0.521l-0.101,0.477l-0.217,1.05
			c-1.113,5.405-1.437,10.934-1.309,16.346c0.171,5.424,0.851,10.752,1.896,15.9c0.518,2.574,1.135,5.105,1.835,7.566
			c0.364,1.228,0.716,2.443,1.124,3.614c0.201,0.586,0.413,1.161,0.625,1.712l0.319,0.803l0.156,0.36
			c0.041,0.09,0.121,0.271,0.103,0.203l-14.08,8.189l-0.358-0.476l-0.215-0.305l-0.348-0.521c-0.213-0.33-0.399-0.642-0.571-0.942
			c-0.348-0.608-0.646-1.191-0.918-1.771c-0.534-1.156-0.992-2.302-1.346-3.435c-0.735-2.271-1.19-4.522-1.45-6.74
			c-0.515-4.438-0.301-8.729,0.336-12.814c0.641-4.091,1.669-7.995,2.985-11.713c1.334-3.708,2.861-7.271,4.623-10.663
			c1.742-3.407,3.637-6.665,5.7-9.789c1.036-1.552,2.067-3.11,3.156-4.604l0.807-1.132l0.731-0.998l1.551-2.104l3.103-4.209
			l2.955-4.106l2.951-4.095c0.975-1.404,1.935-2.819,2.933-4.21c2.01-2.77,3.893-5.645,5.868-8.458
			c1.987-2.807,3.845-5.711,5.83-8.535l5.804-8.595l5.794-8.639l11.703-17.319c1.973-2.887,3.936-5.782,5.956-8.656
			c1.994-2.885,4.012-5.771,6.078-8.63l1.627,0.77c-0.929,3.436-2.01,6.794-3.117,10.151c-1.099,3.36-2.295,6.678-3.512,9.989
			c-1.244,3.298-2.489,6.601-3.831,9.859c-1.3,3.279-2.695,6.514-4.093,9.752c-2.82,6.463-5.811,12.858-8.976,19.177
			c-1.597,3.156-3.205,6.301-4.893,9.418c-1.684,3.119-3.388,6.223-5.18,9.296c-0.879,1.545-1.796,3.067-2.698,4.6l-2.847,4.606
			c-0.954,1.521-1.908,3.113-2.894,4.559l-2.932,4.33l-1.465,2.165l-1.481,2.14c-0.957,1.328-1.835,2.686-2.727,4.037
			c-1.717,2.731-3.462,5.427-4.943,8.202c-1.491,2.771-2.932,5.529-4.081,8.336c-1.162,2.797-2.134,5.6-2.756,8.365
			c-0.329,1.385-0.554,2.746-0.724,4.092c-0.138,1.335-0.205,2.647-0.164,3.903c0.039,1.254,0.19,2.452,0.438,3.525
			c0.113,0.548,0.273,1.035,0.423,1.481c0.077,0.218,0.157,0.42,0.223,0.578l0.08,0.191c0.014,0.036,0.006,0.023,0.003,0.029
			c0.003,0.011-0.008-0.002-0.032-0.034l-0.167-0.211l-14.079,8.19c-0.151-0.399-0.195-0.552-0.277-0.797l-0.203-0.646l-0.351-1.229
			c-0.221-0.807-0.409-1.601-0.586-2.39c-0.343-1.579-0.661-3.136-0.869-4.702c-0.454-3.123-0.683-6.239-0.724-9.34
			c-0.057-6.204,0.651-12.331,1.891-18.262c1.247-5.936,3.006-11.669,5.043-17.226c1.984-5.455,3.763-10.778,5.401-16.242
			c1.592-5.451,3.085-10.93,4.187-16.477c1.103-5.536,1.982-11.131,2.231-16.646c0.312-5.547-0.107-10.806-1.231-15.924
			c-0.549-2.58-1.287-5.238-2.009-8.031c-0.706-2.79-1.397-5.688-1.945-8.625c-0.288-1.465-0.527-2.943-0.743-4.421l-0.323-2.22
			l-0.249-2.223c-0.169-1.484-0.291-2.959-0.412-4.443l-0.238-4.503c-0.027-0.712-0.049-1.425-0.059-2.138l-0.042-2.205
			l-0.076-4.148l-0.035-4.149l-0.152-4.173c-0.2-5.559-0.466-11.161-0.833-16.761l-0.538-8.421
			c-0.238-2.808-0.414-5.624-0.612-8.439l-2.748-33.914c-0.45-5.676-0.92-11.359-1.328-17.063c-0.43-5.7-0.802-11.422-1.105-17.17
			L122.383,1061.813z"/>
	</g>
	<g display="inline">
		<path fill="#117633" d="M967.78,1209.521c0,0-0.145,0.043-0.502,0.067c-0.364,0.029-0.856,0.024-1.52,0.012
			c-1.296-0.08-3.229-0.378-5.534-1.356c-2.271-0.996-4.891-2.692-7.336-5.262c-2.354-2.6-4.49-5.999-5.997-9.939
			c-0.384-0.985-0.628-2.001-0.953-3.038c-0.288-1.039-0.607-2.114-0.755-3.19c-0.375-2.159-0.737-4.434-0.582-6.712
			c0.025-1.146,0.1-2.304,0.201-3.47c0.191-1.148,0.414-2.303,0.676-3.461c0.26-1.178,0.538-2.277,0.869-3.521
			c0.346-1.093,0.694-2.195,1.046-3.309c0.674-2.201,1.427-4.56,1.971-6.89c0.616-2.326,1.035-4.686,1.422-7.081
			c0.359-2.396,0.716-4.824,0.915-7.26c0.101-1.231,0.167-2.421,0.202-3.629c-0.009-1.176-0.019-2.355-0.133-3.433
			c-0.033-0.556-0.124-1.083-0.229-1.592c-0.099-0.513-0.168-1.02-0.332-1.507c-0.144-0.49-0.25-0.966-0.409-1.445l-0.534-1.432
			c-0.134-0.462-0.396-0.97-0.587-1.446c-0.206-0.49-0.359-0.955-0.598-1.454c-0.438-1.004-0.874-2.004-1.308-3
			c-0.46-1.023-0.917-2.042-1.372-3.055c-0.492-1.026-0.981-2.047-1.468-3.061c-0.506-1.135-1.008-2.262-1.507-3.381
			c-0.461-1.063-0.941-2.11-1.37-3.165c-0.429-1.056-0.896-2.087-1.283-3.136c-0.358-1.131-0.74-2.244-1.066-3.362
			c-0.665-2.232-1.252-4.438-1.754-6.597c-0.4-2.119-0.752-4.186-1.036-6.195c-0.142-1.003-0.28-1.988-0.417-2.957
			c-0.112-0.971-0.178-1.929-0.266-2.863c-0.136-1.876-0.266-3.669-0.331-5.381c-0.093-1.707-0.04-3.346-0.033-4.875
			c0.021-3.057,0.241-5.742,0.483-7.949c0.216-2.202,0.568-3.955,0.771-5.134c0.238-1.188,0.409-1.824,0.409-1.824l1.391-0.156
			c0,0,0.306,0.571,0.844,1.639c0.534,1.073,1.265,2.639,2.17,4.63c0.888,1.991,1.897,4.405,3.013,7.164
			c0.53,1.38,1.094,2.848,1.688,4.395c0.614,1.537,1.199,3.16,1.809,4.849c1.147,3.398,2.572,6.984,3.729,10.862
			c0.669,1.847,1.285,3.756,1.85,5.729c0.289,0.984,0.526,1.996,0.798,3.012c0.361,1.059,0.649,2.153,0.982,3.243
			s0.62,2.205,0.933,3.321c0.152,0.56,0.305,1.12,0.458,1.684l0.226,0.848l0.057,0.213l0.028,0.106
			c0.075,0.204-0.086-0.22-0.063-0.155l0.017,0.055l0.129,0.441c0.344,1.177,0.689,2.359,1.037,3.549
			c0.336,1.2,0.649,2.458,0.952,3.695c0.321,1.229,0.51,2.602,0.734,3.898c0.162,1.365,0.297,2.746,0.313,4.177
			c0.058,2.862-0.43,5.898-1.243,8.515c-0.773,2.66-1.814,4.93-2.577,7.238c-0.795,2.297-1.434,4.585-1.849,6.906
			c-0.477,2.307-0.667,4.652-0.686,6.967c0.035,2.326,0.188,4.56,0.544,6.9c0.163,1.156,0.325,2.302,0.485,3.438
			c0.176,0.986,0.441,2.104,0.61,3.115c0.194,1.031,0.335,2.043,0.473,3.033c0.2,0.974,0.374,1.928,0.496,2.867
			c0.198,1.903,0.523,3.638,0.655,5.372c0.033,0.884,0.253,1.67,0.374,2.479c0.139,0.798,0.204,1.625,0.388,2.369
			c0.618,3.036,1.418,5.686,2.326,8.028c0.989,2.261,2.072,4.218,3.175,5.803c1.115,1.558,2.212,2.719,3.008,3.522
			c0.401,0.391,0.727,0.689,0.933,0.867c0.203,0.202,0.358,0.3,0.358,0.3L967.78,1209.521z"/>
	</g>
	<g display="inline">
		<path fill="#117633" d="M999.744,1210.677c0.016,0.011-0.287-0.087-0.782-0.277c-0.496-0.202-1.201-0.541-2.094-1.076
			c-1.746-1.072-4.254-3.075-6.272-6.675c-2.035-3.549-3.295-8.717-2.834-14.353c0.232-2.802,0.792-5.714,1.696-8.633
			c0.896-2.913,2.151-5.811,3.607-8.708c0.771-1.413,1.562-2.861,2.425-4.277c0.883-1.397,1.798-2.827,2.794-4.195
			c0.495-0.689,0.977-1.401,1.497-2.09c0.528-0.674,1.069-1.347,1.624-2.017c1.105-1.351,2.29-2.639,3.531-3.911l0.936-0.955
			l0.117-0.12c0.198-0.216,0.088-0.092,0.147-0.154l0.059-0.055l0.232-0.22l0.47-0.438c0.64-0.573,1.284-1.149,1.933-1.729
			c1.317-1.141,2.66-2.285,4.058-3.408c1.485-1.146,3.031-2.246,4.557-3.375c0.769-0.557,1.528-1.134,2.313-1.67
			c0.787-0.527,1.578-1.058,2.372-1.59c6.295-4.281,12.895-8.442,18.695-13.371c2.848-2.478,5.506-5.12,7.304-8.222
			c0.476-0.759,0.811-1.609,1.221-2.397c0.192-0.403,0.388-0.8,0.563-1.211l0.438-1.293c0.275-0.869,0.567-1.711,0.813-2.582
			l0.599-2.705c0.438-1.75,0.601-3.689,0.883-5.518c0.319-1.807,0.407-3.77,0.614-5.632c0.227-1.858,0.377-3.767,0.545-5.667
			l0.292-2.827l0.159-1.405l0.214-1.568c1.065-7.673,2.092-15.229,3.217-22.516c0.562-3.643,1.201-7.208,1.866-10.69
			c0.755-3.488,1.624-6.896,2.513-10.19c1.82-6.587,3.66-12.781,5.528-18.449c1.823-5.688,3.833-10.753,5.613-15.268
			c1.801-4.502,3.5-8.389,4.963-11.57c1.472-3.182,2.771-5.643,3.639-7.321c0.896-1.672,1.407-2.553,1.406-2.554l1.547,0.41
			c-0.001-0.001,0.021,1.021-0.005,2.915c-0.044,1.89-0.125,4.651-0.33,8.138c-0.186,3.492-0.486,7.711-0.981,12.506
			c-0.461,4.795-1.226,10.176-1.945,15.996c-0.763,5.821-1.774,12.072-2.968,18.65c-0.605,3.29-1.331,6.634-2.094,10.07
			c-0.723,3.471-1.502,7.009-2.383,10.589c-1.758,7.161-3.713,14.534-5.676,22.03c-0.52,1.869-1.041,3.746-1.564,5.628l-0.863,2.892
			c-0.304,0.961-0.677,1.936-1.013,2.9c-1.39,3.844-2.969,7.71-4.953,11.468l-1.48,2.809c-0.547,0.923-1.165,1.824-1.735,2.726
			l-0.852,1.352c-0.315,0.438-0.666,0.856-0.989,1.287c-0.668,0.846-1.267,1.73-1.987,2.519c-2.797,3.27-5.986,5.877-9.009,8.41
			c-3.067,2.479-6.002,4.917-8.673,7.573c-2.674,2.65-5.131,5.428-7.346,8.334c-2.303,2.839-4.239,5.792-6.291,8.515
			c-1.017,1.473-2.059,2.898-3.1,4.296c-0.53,0.689-1.058,1.375-1.581,2.056l-0.402,0.501l-0.202,0.248l-0.051,0.063
			c0.023-0.023-0.124,0.139,0.04-0.037l-0.091,0.122l-0.728,0.966c-0.476,0.648-0.981,1.261-1.478,1.875
			c-0.514,0.604-0.937,1.252-1.43,1.846c-0.475,0.607-0.955,1.201-1.439,1.785c-0.45,0.602-0.923,1.177-1.378,1.759
			c-1.831,2.327-3.467,4.608-4.969,6.82c-1.486,2.208-2.765,4.37-3.886,6.437c-1.051,2.082-1.963,4.066-2.615,5.972
			c-1.289,3.798-1.65,7.21-1.311,10.107c0.32,2.9,1.32,5.212,2.145,6.734c0.406,0.771,0.787,1.34,1.051,1.71
			c0.265,0.383,0.381,0.543,0.396,0.554L999.744,1210.677z"/>
	</g>
	<g display="inline">
		<path fill="#117633" d="M982.15,1217.202c-0.004-0.002-0.058,0.012-0.203,0.018c-0.148-0.007-0.434,0.004-0.715-0.041
			c-0.288-0.042-0.666-0.09-1.068-0.229c-0.208-0.066-0.434-0.138-0.675-0.215c-0.226-0.105-0.467-0.218-0.723-0.337
			c-2.042-0.994-4.588-3.405-6.4-7.038c-1.855-3.611-3.134-8.267-3.834-13.575c-0.399-2.671-0.538-5.472-0.641-8.445
			c-0.057-1.487,0.002-2.98,0.037-4.529c0.056-1.541,0.043-3.139,0.208-4.724c0.142-1.595,0.286-3.223,0.433-4.883
			c0.041-0.415,0.081-0.831,0.122-1.25c0.056-0.424,0.111-0.851,0.167-1.278c0.109-0.815,0.22-1.637,0.331-2.466
			c0.218-1.668,0.46-3.322,0.766-5.064c0.323-1.737,0.666-3.499,1.061-5.275c0.795-3.531,1.803-7.1,2.962-10.699
			c1.188-3.55,2.4-7.178,3.634-10.866c1.218-3.657,2.185-7.353,2.673-11.175c0.081-0.954,0.248-1.914,0.265-2.881
			c0.016-0.968,0.032-1.938,0.049-2.911c-0.135-1.947-0.19-3.914-0.564-5.873c-1.193-7.863-4.033-15.644-7.393-23.158
			c-0.843-1.886-1.747-3.636-2.602-5.44c-0.947-1.774-1.817-3.576-2.819-5.295c-1.892-3.5-3.938-6.804-5.997-10.331
			c-2.052-3.496-4.268-7.438-5.819-11.779c-1.568-4.323-2.411-8.696-2.967-12.877c-0.098-1.035-0.194-2.065-0.291-3.091
			c-0.103-1.027-0.198-2.054-0.211-3.047c-0.035-1-0.07-1.996-0.104-2.986c-0.041-0.975-0.07-2.015-0.049-2.924
			c0.01-1.832,0.032-3.811,0.088-5.646c0.086-1.849,0.171-3.674,0.255-5.476c0.448-7.182,1.098-13.873,1.723-19.997
			c0.635-6.126,1.19-11.673,1.511-16.555c0.298-4.869,0.349-9.076-0.006-12.435c-0.339-3.374-1.164-5.846-2.021-7.413
			c-0.43-0.773-0.824-1.362-1.139-1.706c-0.303-0.374-0.459-0.566-0.459-0.566l0.736-1.072c0,0,0.25,0.127,0.735,0.373
			c0.501,0.238,1.177,0.696,2.021,1.378c1.64,1.388,3.682,3.984,5.165,7.632c1.581,3.627,2.708,8.195,3.524,13.391
			c0.791,5.192,1.271,11.03,1.531,17.31c0.27,6.282,0.298,13.021,0.334,20.056c-0.008,3.496-0.017,7.087-0.024,10.757
			c0.008,1.782,0.016,3.585,0.024,5.404c0.011,1.815,0.111,3.562,0.158,5.377c0.25,3.528,0.617,6.985,1.483,10.276
			c0.835,3.291,2.307,6.585,4.022,10.3c1.697,3.696,3.432,7.691,4.723,11.798c0.689,2.04,1.212,4.13,1.813,6.187
			c0.491,2.103,1.036,4.23,1.457,6.284l1.232,6.177c0.391,2.063,0.781,4.122,1.172,6.179c0.725,4.131,1.562,8.212,2.085,12.363
			c1.272,8.242,1.071,16.771,0.48,24.688c-0.588,7.934-1.186,15.361-2.153,22.301c-0.216,1.727-0.476,3.419-0.745,5.085
			c-0.291,1.66-0.523,3.376-0.834,5.011c-0.145,0.824-0.289,1.641-0.432,2.45c-0.066,0.385-0.133,0.768-0.198,1.149
			c-0.06,0.389-0.119,0.777-0.179,1.163c-0.252,1.544-0.5,3.059-0.742,4.542c-0.282,1.488-0.443,2.928-0.639,4.346
			c-0.162,1.414-0.438,2.807-0.565,4.146c-0.125,1.34-0.257,2.648-0.412,3.925c-0.19,1.286-0.147,2.487-0.269,3.687
			c-0.278,4.752-0.221,8.876,0.349,12.105c0.549,3.234,1.622,5.521,2.728,6.788c0.138,0.163,0.268,0.318,0.389,0.463
			c0.137,0.122,0.264,0.236,0.383,0.343c0.238,0.236,0.463,0.359,0.645,0.491c0.187,0.138,0.287,0.18,0.383,0.245
			c0.104,0.051,0.18,0.07,0.176,0.071L982.15,1217.202z"/>
	</g>
	<g display="inline">
		<path fill="#117633" d="M984.412,1209.744c0,0,0.016-0.291,0.048-0.854c0.05-0.561,0.095-1.388,0.147-2.456
			c0.156-2.109,0.318-5.237,0.658-9.155c0.189-1.947,0.297-4.144,0.507-6.491c0.11-1.172,0.226-2.392,0.345-3.657
			c0.145-1.257,0.264-2.568,0.36-3.93c0.45-5.429,1.214-11.466,1.854-18.107c0.196-1.651,0.397-3.337,0.603-5.055
			c0.199-1.72,0.505-3.45,0.679-5.239c0.342-3.576,0.869-7.247,1.537-11.01c0.332-1.881,0.724-3.782,1.145-5.705
			c0.463-1.918,0.789-3.884,1.255-5.854c0.897-3.947,1.88-7.982,2.86-12.101c2.032-8.258,3.393-16.891,4.124-25.744
			c0.807-8.816,1.053-17.896,0.837-26.878c-0.143-4.469-0.336-8.841-0.857-12.97c-0.471-4.124-1.289-8.146-2.151-12.295
			c-0.222-1.036-0.442-2.07-0.663-3.102c-0.243-1.045-0.485-2.087-0.727-3.126c-0.463-2.067-1.02-4.173-1.527-6.241
			c-0.53-2.083-1.058-4.153-1.581-6.209c-0.269-1.07-0.536-2.136-0.804-3.198c-0.24-1.034-0.48-2.065-0.72-3.092
			c-1.904-8.214-3.484-16.204-4.666-23.843c-0.307-1.908-0.562-3.798-0.833-5.658c-0.23-1.882-0.466-3.734-0.649-5.563
			c-0.408-3.651-0.744-7.187-1.054-10.581c-0.564-6.791-1.059-13.031-1.191-18.563c-0.18-5.532-0.202-10.37-0.155-14.36
			c0.028-3.987,0.221-7.147,0.335-9.294c0.141-2.151,0.251-3.301,0.251-3.301l1.584-0.223c0,0,0.434,1.074,1.181,3.092
			c0.728,2.021,1.774,4.981,3.033,8.763c1.25,3.781,2.689,8.38,4.186,13.673c0.741,2.641,1.529,5.451,2.36,8.414
			c0.833,2.955,1.64,6.07,2.481,9.318c0.817,3.253,1.654,6.64,2.461,10.154c0.424,1.753,0.807,3.545,1.203,5.361
			c0.429,1.826,0.902,3.676,1.324,5.561c1.741,7.53,3.245,15.536,4.529,23.87c0.318,2.052,0.641,4.12,0.964,6.204
			c0.342,2.135,0.684,4.265,0.992,6.457c0.31,2.19,0.654,4.354,0.927,6.608c0.145,1.119,0.288,2.24,0.433,3.364
			c0.141,1.129,0.238,2.293,0.353,3.441c0.436,4.596,0.61,9.465,0.112,14.301c-0.488,4.825-1.414,9.425-2.413,13.9
			c-0.983,4.46-2.024,8.865-2.821,13.273c-0.832,4.405-1.442,8.815-1.916,13.203c-0.455,4.389-0.754,8.741-0.762,13.099
			c-0.024,4.361,0.129,8.634,0.302,12.915c0.325,8.537,1.002,16.874,0.206,24.662c-0.314,3.899-0.743,7.681-1.325,11.313
			c-0.58,3.636-1.336,7.125-2.018,10.475c-1.344,6.697-3.136,12.756-4.775,18.08c-0.784,2.666-1.77,5.123-2.601,7.394
			c-0.894,2.261-1.643,4.338-2.508,6.18c-1.663,3.688-3.075,6.534-4.2,8.44c-1.07,1.912-1.742,2.852-1.742,2.852L984.412,1209.744z"
			/>
	</g>
	<g display="inline">
		<path fill="#117633" d="M976.473,1217.074c0.001,0-0.349-0.583-0.866-1.728c-0.493-1.137-1.238-2.896-1.873-5.081
			c-0.66-2.194-1.409-4.898-1.892-7.991c-0.531-3.099-1.006-6.62-1.143-10.436c-0.075-1.91-0.137-3.902-0.126-5.963
			c-0.054-2.067,0.144-4.177,0.45-6.345c0.603-4.332,1.85-8.861,3.381-13.469c1.5-4.615,2.626-9.39,2.979-14.326
			c0.586-4.908,0.529-9.971,0.169-15.099l-0.252-3.846c-0.071-1.251-0.143-2.5-0.214-3.747c-0.107-2.527-0.112-5.031-0.017-7.503
			c0.077-4.859,0.193-9.506,0.147-14.105c0.008-2.286,0.108-4.526,0.118-6.705c0.033-2.176,0.238-4.321,0.312-6.38
			c0.272-4.132,0.53-8.038,0.769-11.645c0.215-3.601,0.416-6.917,0.517-9.859c0.04-1.468,0.128-2.871,0.115-4.139
			c0.014-0.646,0.027-1.265,0.04-1.857c-0.006-0.589-0.012-1.15-0.018-1.683c-0.011-2.151-0.094-3.856-0.207-5.019
			c-0.049-0.584-0.099-1.035-0.145-1.324c-0.033-0.284-0.051-0.432-0.051-0.432l1.156-0.789c0,0,0.141,0.123,0.413,0.361
			c0.263,0.234,0.604,0.592,1.05,1.073c0.847,0.978,2.033,2.482,3.207,4.55c0.289,0.518,0.609,1.063,0.918,1.647
			c0.282,0.588,0.578,1.202,0.885,1.844c0.626,1.296,1.168,2.714,1.736,4.251c1.117,3.074,2.073,6.606,2.848,10.495
			c0.727,3.884,1.276,8.121,1.487,12.589c0.168,2.245,0.072,4.516,0.018,6.855c-0.066,2.341-0.298,4.704-0.599,7.102
			c-0.282,2.398-0.612,4.83-1.074,7.297c-0.442,2.453-0.835,4.976-1.333,7.426c-0.523,2.418-1.152,4.842-1.887,7.263
			c-0.384,1.228-0.768,2.457-1.153,3.688l-1.188,3.603c-1.609,4.808-2.916,9.681-3.56,14.552c-0.616,4.873-0.372,9.759,0.235,14.488
			c0.148,1.181,0.296,2.352,0.442,3.511c0.171,1.158,0.373,2.306,0.514,3.436c0.297,2.259,0.5,4.457,0.519,6.583
			c0.068,2.128-0.108,4.19-0.222,6.173c-0.112,1.986-0.292,3.904-0.48,5.746c-0.459,3.69-0.863,7.055-1.372,10.058
			c-0.544,3.011-1.023,5.621-1.535,7.805c-0.537,2.196-0.921,3.864-1.287,5.07c-0.19,0.595-0.298,1.066-0.391,1.379
			c-0.099,0.315-0.148,0.478-0.148,0.478L976.473,1217.074z"/>
	</g>
	<path display="inline" fill="#FFFFFF" d="M168.169,23c0,0-73-4-106,5s-59,14,0,16s48-1,120,0s129,7,133-4
		S238.226,22.954,168.169,23z"/>
	<path display="inline" fill="#FFFFFF" d="M762.169,42c0,0-73-4-106,5s-59,14,0,16s48-1,120,0s129,7,133-4
		S832.226,41.954,762.169,42z"/>
	<path display="inline" fill="#FFFFFF" d="M332.227,76.027c0,0-53.483-2.93-77.66,3.664c-24.177,6.594-43.226,10.257,0,11.722
		s35.167-0.733,87.917,0c52.75,0.732,94.51,5.128,97.441-2.931C442.855,80.423,383.553,75.993,332.227,76.027z"/>
	<path display="inline" fill="#FFFFFF" d="M464.166,17.083c0,0-49.408-2.93-71.743,3.664c-22.335,6.594-39.933,10.257,0,11.722
		s32.487-0.733,81.219,0c48.731,0.732,87.311,5.128,90.019-2.931C566.367,21.479,511.582,17.049,464.166,17.083z"/>
	<path display="inline" fill="#FFFFFF" d="M879.166,106.083c0,0-49.408-2.93-71.743,3.664s-39.933,10.257,0,11.722
		s32.487-0.733,81.219,0c48.731,0.732,87.311,5.128,90.019-2.931C981.367,110.479,926.582,106.049,879.166,106.083z"/>
	<path display="inline" fill="#FFFFFF" d="M1022.257,53.971c0,0-41.182-2.93-59.798,3.664s-33.283,10.257,0,11.722
		c33.284,1.465,27.078-0.733,67.695,0c40.618,0.732,72.773,5.128,75.03-2.931S1061.779,53.937,1022.257,53.971z"/>
	<g display="inline">
		<path fill="#4293D0" d="M112.169,71.53c0,0,0.982-0.455,2.855-1.254c1.878-0.776,4.63-1.938,8.188-3.266
			c1.784-0.653,3.759-1.375,5.91-2.162c2.16-0.76,4.509-1.548,7.026-2.37c2.527-0.787,5.206-1.672,8.056-2.518
			c1.429-0.409,2.895-0.829,4.396-1.258c1.502-0.425,3.039-0.864,4.623-1.258c6.313-1.661,13.193-3.36,20.562-4.766
			c1.843-0.35,3.712-0.705,5.604-1.064c1.892-0.36,3.828-0.613,5.774-0.929c1.951-0.297,3.924-0.598,5.915-0.901
			c2.004-0.227,4.027-0.456,6.067-0.687c2.044-0.204,4.094-0.523,6.182-0.636c2.086-0.138,4.188-0.278,6.302-0.418
			c1.058-0.07,2.119-0.14,3.183-0.21c1.065-0.048,2.138-0.051,3.212-0.079c2.148-0.032,4.308-0.064,6.476-0.096
			c2.167-0.084,4.353,0.101,6.541,0.157c2.184,0.092,4.374,0.185,6.568,0.277c4.308,0.31,8.58,0.6,12.869,0.851
			c8.586,0.56,17.186,0.997,25.653,1.437c4.235,0.202,8.437,0.402,12.588,0.601c4.153,0.18,8.256,0.359,12.292,0.534
			c8.076,0.306,15.882,0.602,23.284,0.883c7.405,0.243,14.408,0.483,20.873,0.64c6.464,0.122,12.392,0.249,17.645,0.28
			c5.251,0.001,9.833-0.005,13.598-0.141c3.764-0.146,6.72-0.329,8.72-0.606c0.988-0.172,1.766-0.263,2.264-0.416
			c0.51-0.126,0.773-0.191,0.773-0.191s-0.248,0.109-0.729,0.32c-0.478,0.237-1.221,0.472-2.198,0.792
			c-1.964,0.563-4.888,1.273-8.649,1.881c-3.758,0.627-8.339,1.276-13.608,1.799c-5.268,0.554-11.218,1.074-17.716,1.447
			c-6.497,0.409-13.539,0.761-20.989,0.969c-7.45,0.211-15.308,0.333-23.437,0.321c-4.064,0.01-8.196-0.041-12.379-0.102
			c-4.183-0.056-8.416-0.148-12.682-0.29c-8.534-0.241-17.2-0.665-25.866-1.181c-4.337-0.28-8.687-0.603-12.963-0.937
			c-2.105-0.115-4.206-0.229-6.301-0.344c-2.092-0.091-4.167-0.313-6.257-0.267c-8.334-0.108-16.572,0.042-24.542,0.65
			c-1.994,0.139-3.972,0.277-5.931,0.413c-1.956,0.199-3.894,0.396-5.811,0.592c-1.917,0.205-3.821,0.346-5.69,0.598
			c-1.872,0.24-3.721,0.478-5.545,0.712c-3.66,0.404-7.188,1.031-10.625,1.511c-3.442,0.455-6.734,1.104-9.917,1.618
			c-6.342,1.147-12.156,2.262-17.302,3.321c-2.569,0.554-4.973,1.072-7.196,1.551c-2.222,0.5-4.262,0.959-6.105,1.374
			c-1.84,0.435-3.484,0.824-4.914,1.162c-1.428,0.35-2.644,0.647-3.628,0.888C113.219,71.263,112.169,71.53,112.169,71.53z"/>
	</g>
	<g display="inline">
		<path fill="#4293D0" d="M529.169,93.266c0,0,2.736-1.611,8.003-3.395c2.638-0.841,5.873-1.873,9.683-2.601
			c1.895-0.441,3.935-0.739,6.088-1.104c1.075-0.208,2.188-0.289,3.327-0.417c1.14-0.12,2.307-0.241,3.498-0.366
			c2.386-0.114,4.882-0.343,7.466-0.375c2.581-0.002,5.266-0.082,8.006,0.107c1.373,0.074,2.766,0.148,4.175,0.224
			c1.411,0.077,2.823,0.279,4.262,0.417c1.436,0.158,2.888,0.318,4.354,0.479c1.453,0.24,2.921,0.481,4.4,0.725
			c1.477,0.259,2.982,0.458,4.472,0.774c1.485,0.333,2.981,0.67,4.487,1.008c1.482,0.336,2.975,0.673,4.474,1.013
			c1.485,0.359,2.979,0.72,4.477,1.083c1.495,0.353,3.011,0.753,4.504,1.071c1.492,0.324,2.987,0.649,4.486,0.974
			c1.501,0.325,2.989,0.68,4.508,0.982l4.564,0.895l4.561,0.916c1.526,0.276,3.051,0.551,4.572,0.827
			c1.521,0.277,3.039,0.554,4.554,0.831c1.519,0.254,3.032,0.507,4.54,0.76c3.015,0.517,6.012,0.997,8.978,1.445
			c1.482,0.229,2.956,0.458,4.419,0.685c1.466,0.208,2.921,0.415,4.364,0.619c1.444,0.207,2.876,0.412,4.294,0.615
			c1.42,0.185,2.827,0.368,4.219,0.549c2.783,0.373,5.51,0.726,8.167,1.022c2.656,0.316,5.242,0.636,7.745,0.882
			c2.503,0.258,4.925,0.574,7.25,0.748c4.653,0.416,8.921,0.744,12.714,0.99c1.893,0.087,3.667,0.14,5.313,0.245
			c1.643,0.027,3.15,0.051,4.513,0.074c0.687,0.025,1.326-0.005,1.931-0.035c0.606-0.019,1.176-0.037,1.705-0.054
			c0.532-0.016,1.024-0.031,1.476-0.044c0.444-0.052,0.848-0.1,1.209-0.143c1.465-0.168,2.246-0.258,2.246-0.258
			s-0.748,0.247-2.152,0.709c-0.355,0.111-0.754,0.236-1.191,0.373c-0.444,0.098-0.93,0.205-1.454,0.32
			c-1.05,0.215-2.266,0.54-3.635,0.718c-1.373,0.198-2.894,0.417-4.548,0.656c-1.657,0.184-3.455,0.322-5.379,0.501
			c-1.923,0.147-3.967,0.24-6.129,0.373c-2.162,0.132-4.426,0.104-6.798,0.167c-4.737,0.058-9.874,0.03-15.293-0.216
			c-2.714-0.075-5.491-0.276-8.335-0.453c-2.846-0.148-5.742-0.425-8.689-0.69c-1.473-0.137-2.959-0.274-4.455-0.413
			c-1.493-0.174-2.997-0.349-4.51-0.524s-3.035-0.353-4.565-0.531c-1.524-0.219-3.058-0.438-4.596-0.659
			c-1.539-0.222-3.084-0.444-4.634-0.667c-1.548-0.236-3.094-0.515-4.646-0.781c-1.551-0.269-3.105-0.537-4.661-0.806
			c-1.554-0.281-3.104-0.599-4.655-0.902l-4.647-0.948c-1.549-0.32-3.101-0.702-4.646-1.049c-1.545-0.362-3.087-0.722-4.624-1.082
			c-1.535-0.366-3.006-0.79-4.503-1.18c-2.971-0.793-5.918-1.581-8.83-2.358c-1.431-0.379-2.853-0.756-4.265-1.13
			c-1.416-0.354-2.836-0.633-4.238-0.951c-1.405-0.309-2.798-0.615-4.178-0.918c-1.391-0.239-2.769-0.476-4.132-0.71
			c-1.364-0.223-2.71-0.512-4.051-0.675c-1.342-0.171-2.668-0.34-3.976-0.507c-5.236-0.67-10.223-0.969-14.844-1.142
			c-4.612-0.008-8.868,0.014-12.625,0.331c-0.941,0.076-1.852,0.149-2.731,0.221c-0.876,0.1-1.722,0.195-2.534,0.288
			c-1.636,0.145-3.11,0.429-4.463,0.612c-2.676,0.482-4.795,0.883-6.211,1.266C529.92,93.02,529.169,93.266,529.169,93.266z"/>
	</g>
	<g display="inline">
		<path fill="#4293D0" d="M131.169,93.266c0,0,1.057,0.746,3.135,1.968c2.091,1.201,5.182,2.915,9.272,4.758
			c1.006,0.491,2.093,0.953,3.239,1.422c1.146,0.468,2.326,0.996,3.587,1.474c2.543,0.911,5.232,2.021,8.213,2.931
			c5.889,2.001,12.703,3.719,20.162,5.319c1.876,0.354,3.791,0.714,5.742,1.081c0.487,0.092,0.977,0.185,1.469,0.277
			c0.497,0.07,0.995,0.14,1.496,0.21c1.001,0.139,2.012,0.279,3.031,0.421c1.018,0.144,2.044,0.289,3.078,0.436
			c1.033,0.152,2.071,0.323,3.132,0.406c2.112,0.208,4.257,0.42,6.431,0.635c1.088,0.094,2.176,0.244,3.283,0.296
			c1.106,0.055,2.219,0.11,3.339,0.166c2.238,0.112,4.502,0.225,6.792,0.339c2.293,0.017,4.612,0.034,6.952,0.051
			c1.17,0.012,2.345,0.024,3.525,0.036l1.716,0.019l1.807-0.052c9.633-0.318,19.711-0.418,29.635-1.173
			c2.497-0.15,5.004-0.301,7.518-0.453c2.504-0.262,5.017-0.525,7.533-0.788l3.779-0.386c1.261-0.125,2.523-0.245,3.776-0.456
			l7.535-1.126c2.51-0.332,5.04-0.823,7.559-1.252c2.529-0.441,5.056-0.882,7.578-1.322c2.543-0.437,5.082-0.873,7.612-1.307
			c2.528-0.44,5.097-0.739,7.629-1.113c2.539-0.344,5.063-0.735,7.583-1.036c2.526-0.241,5.039-0.481,7.538-0.72
			c2.497-0.238,4.979-0.475,7.443-0.709l0.462-0.044l0.521-0.035l0.916-0.053l1.827-0.098c1.216-0.064,2.427-0.129,3.633-0.192
			c2.412-0.128,4.804-0.254,7.173-0.38c2.371-0.125,4.708-0.275,7.06-0.282c4.682-0.083,9.263-0.164,13.722-0.243
			c8.903-0.104,17.288,0.016,25.037,0.198c3.871,0.115,7.581,0.225,11.109,0.33c3.527,0.11,6.871,0.315,10.013,0.46
			c3.142,0.167,6.082,0.277,8.798,0.464c2.716,0.186,5.211,0.356,7.464,0.51c4.506,0.278,8.041,0.643,10.452,0.829
			c2.409,0.229,3.694,0.352,3.694,0.352s-5.156,0.149-14.18,0.411c-4.507,0.137-9.979,0.304-16.256,0.496
			c-6.274,0.162-13.348,0.501-21.059,0.742c-3.857,0.103-7.868,0.363-12.02,0.558c-4.146,0.235-8.457,0.299-12.841,0.619
			c-4.389,0.277-8.897,0.562-13.505,0.852c-4.603,0.302-9.357,0.773-14.164,1.163c-2.384,0.207-4.788,0.416-7.208,0.626
			c-2.414,0.287-4.844,0.575-7.29,0.866c-2.445,0.29-4.904,0.582-7.376,0.875c-2.465,0.331-4.93,0.748-7.41,1.12
			c-2.479,0.402-4.967,0.724-7.465,1.194c-2.498,0.451-5.004,0.903-7.515,1.356c-2.532,0.454-5.068,0.909-7.608,1.364
			c-2.552,0.444-5.079,0.954-7.678,1.303c-2.584,0.374-5.169,0.748-7.751,1.122c-1.288,0.21-2.587,0.328-3.885,0.452l-3.887,0.38
			c-2.59,0.246-5.174,0.49-7.751,0.734c-2.585,0.121-5.163,0.241-7.73,0.36c-2.566,0.117-5.123,0.233-7.667,0.349l-1.905,0.075
			l-1.879,0.007c-1.25,0.002-2.497,0.004-3.739,0.006c-4.972,0.007-9.883,0.015-14.713,0.022l-1.808,0.003l-1.882-0.067
			c-1.213-0.045-2.421-0.09-3.623-0.135c-2.404-0.09-4.784-0.175-7.134-0.323c-2.347-0.224-4.669-0.444-6.962-0.663
			c-1.146-0.109-2.285-0.218-3.416-0.326c-1.131-0.104-2.247-0.308-3.359-0.456c-2.221-0.321-4.411-0.638-6.569-0.95
			c-2.157-0.303-4.257-0.788-6.328-1.191c-1.034-0.211-2.059-0.419-3.075-0.626c-0.508-0.104-1.013-0.208-1.516-0.312
			c-0.499-0.126-0.995-0.252-1.489-0.377c-1.974-0.501-3.91-0.994-5.807-1.476c-1.905-0.439-3.719-1.085-5.515-1.605
			c-1.783-0.572-3.555-1.019-5.219-1.672c-1.673-0.613-3.303-1.21-4.888-1.791c-1.592-0.551-3.08-1.257-4.551-1.847
			c-2.945-1.177-5.615-2.489-8.082-3.679c-1.229-0.607-2.376-1.259-3.486-1.843c-1.11-0.585-2.161-1.158-3.131-1.752
			c-0.977-0.579-1.901-1.126-2.771-1.641c-0.845-0.555-1.637-1.076-2.375-1.56c-1.472-0.966-2.673-1.867-3.652-2.581
			C132.112,94.15,131.169,93.267,131.169,93.266z"/>
	</g>
	<g display="inline">
		<path fill="#4293D0" d="M661.169,16.434c0,0,1.141-0.334,3.314-0.84c2.177-0.478,5.375-1.204,9.494-1.858
			c4.116-0.645,9.137-1.412,14.936-1.887c5.794-0.499,12.361-0.96,19.537-0.949c0.897-0.009,1.805-0.019,2.72-0.028
			c0.916,0.014,1.841,0.029,2.773,0.043c1.867,0.039,3.772,0.036,5.707,0.112c3.868,0.17,7.871,0.376,11.973,0.764
			c4.113,0.288,8.31,0.852,12.615,1.338c4.263,0.536,8.572,1.202,12.978,1.824c4.396,0.622,8.866,1.255,13.391,1.896
			c4.525,0.655,9.097,1.247,13.693,1.85c2.3,0.302,4.609,0.605,6.925,0.909c2.315,0.245,4.637,0.491,6.963,0.737
			c2.325,0.244,4.654,0.525,6.987,0.739l7.011,0.491c2.337,0.158,4.671,0.38,7.009,0.496c2.341,0.075,4.679,0.15,7.012,0.226
			c2.334,0.08,4.663,0.161,6.985,0.24c2.328-0.01,4.648-0.02,6.961-0.029c4.625-0.051,9.21,0.045,13.755-0.185
			c4.544-0.154,9.033-0.306,13.448-0.455c8.786-0.505,17.438-0.952,25.561-1.36c4.071-0.203,8.032-0.399,11.863-0.59
			c3.817-0.234,7.507-0.461,11.049-0.678c7.082-0.464,13.588-0.804,19.359-1.102c5.761-0.41,10.795-0.695,14.941-0.943
			c8.298-0.483,13.04-0.759,13.04-0.759s-1.166,0.226-3.354,0.65c-2.188,0.414-5.399,1.034-9.502,1.689
			c-4.101,0.68-9.079,1.533-14.805,2.407c-5.733,0.814-12.208,1.729-19.286,2.633c-3.538,0.462-7.225,0.943-11.04,1.44
			c-3.816,0.39-7.761,0.792-11.816,1.207c-8.133,0.811-16.618,1.711-25.567,2.486c-8.931,0.541-18.147,1.295-27.583,1.319
			c-2.355,0.045-4.721,0.09-7.093,0.136c-2.376-0.06-4.76-0.12-7.147-0.179c-2.388-0.065-4.78-0.131-7.176-0.196
			c-2.393-0.108-4.784-0.315-7.178-0.475l-7.174-0.54c-2.382-0.23-4.752-0.528-7.122-0.789c-2.369-0.275-4.732-0.55-7.089-0.825
			c-2.34-0.342-4.673-0.684-6.996-1.024c-2.322-0.344-4.636-0.687-6.938-1.028c-2.286-0.387-4.562-0.772-6.822-1.156
			c-4.516-0.776-8.977-1.543-13.364-2.297c-4.376-0.769-8.697-1.5-12.891-2.277c-4.173-0.677-8.248-1.433-12.252-1.91
			c-7.991-1.091-15.6-1.794-22.643-2.235c-7.045-0.443-13.525-0.565-19.276-0.58c-5.751,0.011-10.77,0.203-14.904,0.417
			C665.884,15.778,661.169,16.434,661.169,16.434z"/>
	</g>
	<g display="inline">
		<path fill="#4293D0" d="M759.169,75.378c0,0,0.156,0.202,0.502,0.538c0.355,0.325,0.887,0.806,1.659,1.326
			c1.521,1.06,3.901,2.396,7.152,3.564c3.241,1.172,7.27,2.316,12.005,3.149c4.706,0.931,10.128,1.433,16.011,1.96
			c2.967,0.13,6.044,0.314,9.236,0.397c3.205-0.01,6.501,0.128,9.902,0.073c3.405-0.105,6.896-0.094,10.466-0.235
			c3.564-0.17,7.206-0.343,10.909-0.52c3.746-0.243,7.556-0.489,11.411-0.739c3.856-0.228,7.76-0.459,11.694-0.692
			c7.87-0.458,15.868-0.836,23.866-1.226c8.001-0.339,16-0.695,23.879-0.953c3.938-0.148,7.847-0.273,11.709-0.375
			s7.678-0.203,11.43-0.303c7.507-0.181,14.766-0.297,21.649-0.381c6.885-0.087,13.396-0.086,19.409-0.077
			c6.01-0.026,11.523,0.046,16.411,0.116c4.886,0.04,9.149,0.167,12.66,0.252c3.51,0.07,6.271,0.208,8.152,0.266
			c1.882,0.083,2.886,0.128,2.886,0.128s-0.996,0.135-2.863,0.389c-1.868,0.229-4.606,0.617-8.096,1.005
			c-3.489,0.404-7.725,0.917-12.588,1.4c-4.861,0.513-10.347,1.086-16.335,1.606c-5.987,0.555-12.474,1.146-19.337,1.685
			c-6.864,0.542-14.104,1.084-21.597,1.586c-3.746,0.242-7.556,0.488-11.411,0.737c-3.855,0.248-7.759,0.479-11.695,0.689
			c-7.869,0.459-15.868,0.831-23.866,1.219c-8,0.339-16,0.688-23.879,0.946c-3.939,0.125-7.848,0.25-11.709,0.373
			c-3.862,0.101-7.678,0.202-11.43,0.3c-3.803-0.008-7.541-0.017-11.2-0.025c-3.653-0.085-7.232-0.265-10.708-0.423
			c-1.737-0.054-3.455-0.27-5.144-0.394c-1.687-0.151-3.348-0.3-4.981-0.446c-3.265-0.381-6.411-0.858-9.425-1.268
			c-1.502-0.277-2.973-0.549-4.411-0.814c-1.435-0.277-2.841-0.483-4.191-0.862c-2.707-0.687-5.275-1.269-7.643-2.068
			c-4.774-1.375-8.769-3.191-11.921-4.856c-0.777-0.441-1.512-0.859-2.204-1.252c-0.656-0.453-1.271-0.877-1.845-1.272
			c-0.58-0.374-1.049-0.834-1.51-1.192c-0.463-0.359-0.849-0.73-1.183-1.073C759.628,76.297,759.169,75.378,759.169,75.378z"/>
	</g>
</g>
<g id="Capa_4" display="none">
	<rect display="inline" fill="#0D485E" width="1111.865" height="1500"/>
	<path display="inline" fill="#DBDBDB" d="M0,1243c0,0,44.169-34,70.169-100s22-94,86-144s100-94,130-64s32,36,86,86
		s46,24.215,108,63.107s60,46.893,118,48.893s98,8,132,4s34-14,116-10s88,10,134,18s131.695,22,131.695,22v333H0V1243z"/>
	<path display="inline" fill="#D8ECFA" d="M0,1351c0,0,28.169,2,52.169-22s36-28,46-52s6-30,20-40s20,1.215,36-24.393
		s8-17.607,28-55.607s20-38,26-52s-24-50,30-46s54-14,82,24s8,44,52,58s36,0,84,36s94,42,110,44s38,34,62,50s18,20,56-4s26-34,76-36
		s32-4,80-2s42-16,90-2s84,20,100,24s55.979,14,55.979,18s25.716,0,25.716,0v-72l-129.695-32l-116-16l-148,16l-86,10l-106-34l-94-50
		l-92-92l-104-26l-98,60l-24,129.021l-56,50.587L0,1277V1351z"/>
	<path display="inline" fill="#FFFFFF" d="M0,1307v-64c0,0,11.802,14.656,43.441-49.141s41.217-108.788,58.084-134.068
		S112.169,1017,142.169,993s59.817-37.685,85.585-51.792s18.415-31.78,50.415-15.994s26-14.214,56,23.786s39.617,50.106,62,78
		s34.421,27.586,64.131,45.473s29.396,24.535,64.156,40.531s-0.038,15.82,73.713,19.996s97.771,10.898,132,4s18-31.99,88-23.995
		s84,5.995,114,11.995s56.725,21.574,83.322,26.028s70.657,11.75,70.657,11.75l25.716,4.222v58c0,0-11.695,12-29.695,0
		s12-2.785-42-12.393s-60-3.607-78-13.607s10-14-36-18s-46-2-100,4s-42-2-94,10s-60,35.215-90,17.607s12-11.607-30-17.607
		s-16.475-4-56.237-6s-75.763-28-75.763-28s-4-2-26-24s-22-26-40-42s-26-12-46-26s-34-30-48-38s-2-12-38-12s-40-6-56-6s-28-4-34,16
		s-14,30-14,50s-16,22-20,52s-16,48-38,66s-44,24-56,40s-26,26-36,36S0,1307,0,1307z"/>
	<path display="inline" fill="#FFFFFF" d="M0,181c0,0,96.169-16,126.169,32c0,0,156-48,278,48c0,0,56-56.56,168-41.28
		s184,107.28,184,107.28s82,42,54,128s-144,114-200,82c0,0-94,90-280,26c0,0-86,35.957-130,22.979C200.169,585.979,77.831,645,0,599
		V181z"/>
	<path display="inline" fill="#FFFFFF" d="M688.169,0l423.695,0v137c0,0-147.695,8-203.695-42c0,0-106-5-128-50
		C780.169,45,706.169,43,688.169,0z"/>
	<circle display="inline" fill="#FFFFFF" cx="59.169" cy="670" r="11"/>
	<circle display="inline" fill="#FFFFFF" cx="168.169" cy="750" r="11"/>
	<circle display="inline" fill="#FFFFFF" cx="149.169" cy="635" r="8"/>
	<circle display="inline" fill="#FFFFFF" cx="70.169" cy="785" r="8"/>
	<circle display="inline" fill="#FFFFFF" cx="130.669" cy="686" r="5"/>
	<circle display="inline" fill="#FFFFFF" cx="96.169" cy="723" r="5"/>
	<circle display="inline" fill="#FFFFFF" cx="229.169" cy="737" r="11"/>
	<circle display="inline" fill="#FFFFFF" cx="338.169" cy="817" r="11"/>
	<circle display="inline" fill="#FFFFFF" cx="319.169" cy="702" r="8"/>
	<circle display="inline" fill="#FFFFFF" cx="240.169" cy="852" r="8"/>
	<circle display="inline" fill="#FFFFFF" cx="300.669" cy="753" r="5"/>
	<circle display="inline" fill="#FFFFFF" cx="266.169" cy="790" r="5"/>
	<circle display="inline" fill="#FFFFFF" cx="46.669" cy="860" r="11"/>
	<circle display="inline" fill="#FFFFFF" cx="155.669" cy="940" r="11"/>
	<circle display="inline" fill="#FFFFFF" cx="136.669" cy="825" r="8"/>
	<circle display="inline" fill="#FFFFFF" cx="57.669" cy="975" r="8"/>
	<circle display="inline" fill="#FFFFFF" cx="118.169" cy="876" r="5"/>
	<circle display="inline" fill="#FFFFFF" cx="83.669" cy="913" r="5"/>
	<circle display="inline" fill="#FFFFFF" cx="78.125" cy="1041.822" r="5"/>
	<circle display="inline" fill="#FFFFFF" cx="35.669" cy="1135" r="5"/>
	<circle display="inline" fill="#FFFFFF" cx="495.613" cy="810.359" r="5"/>
	<circle display="inline" fill="#FFFFFF" cx="1052.547" cy="924.929" r="5"/>
	<circle display="inline" fill="#FFFFFF" cx="1078.062" cy="793" r="5"/>
	<circle display="inline" fill="#FFFFFF" cx="1062.15" cy="441.374" r="5"/>
	<circle display="inline" fill="#FFFFFF" cx="625.532" cy="32.748" r="5"/>
	<circle display="inline" fill="#FFFFFF" cx="404.669" cy="641" r="11"/>
	<circle display="inline" fill="#FFFFFF" cx="513.669" cy="721" r="11"/>
	<circle display="inline" fill="#FFFFFF" cx="494.669" cy="606" r="8"/>
	<circle display="inline" fill="#FFFFFF" cx="415.669" cy="756" r="8"/>
	<circle display="inline" fill="#FFFFFF" cx="476.169" cy="657" r="5"/>
	<circle display="inline" fill="#FFFFFF" cx="441.669" cy="694" r="5"/>
	<circle display="inline" fill="#FFFFFF" cx="361.528" cy="913.928" r="11"/>
	<circle display="inline" fill="#FFFFFF" cx="495.613" cy="896.548" r="11"/>
	<circle display="inline" fill="#FFFFFF" cx="402.471" cy="826.472" r="8"/>
	<circle display="inline" fill="#FFFFFF" cx="448.882" cy="989.527" r="8"/>
	<circle display="inline" fill="#FFFFFF" cx="424.299" cy="876.139" r="5"/>
	<circle display="inline" fill="#FFFFFF" cx="424.886" cy="926.725" r="5"/>
	<circle display="inline" fill="#FFFFFF" cx="558.811" cy="664.928" r="11"/>
	<circle display="inline" fill="#FFFFFF" cx="692.897" cy="647.548" r="11"/>
	<circle display="inline" fill="#FFFFFF" cx="599.755" cy="577.472" r="8"/>
	<circle display="inline" fill="#FFFFFF" cx="646.166" cy="740.527" r="8"/>
	<circle display="inline" fill="#FFFFFF" cx="621.583" cy="627.139" r="5"/>
	<circle display="inline" fill="#FFFFFF" cx="622.169" cy="677.725" r="5"/>
	<circle display="inline" fill="#FFFFFF" cx="589.673" cy="888.945" r="11"/>
	<circle display="inline" fill="#FFFFFF" cx="692.602" cy="801.271" r="11"/>
	<circle display="inline" fill="#FFFFFF" cx="576.314" cy="793.307" r="7.999"/>
	<circle display="inline" fill="#FFFFFF" cx="704.12" cy="904.693" r="8"/>
	<circle display="inline" fill="#FFFFFF" cx="621.692" cy="823.042" r="5"/>
	<circle display="inline" fill="#FFFFFF" cx="649.763" cy="865.128" r="5"/>
	<circle display="inline" fill="#FFFFFF" cx="549.211" cy="1070.639" r="11"/>
	<circle display="inline" fill="#FFFFFF" cx="652.14" cy="982.965" r="11"/>
	<circle display="inline" fill="#FFFFFF" cx="535.853" cy="975.001" r="7.999"/>
	<circle display="inline" fill="#FFFFFF" cx="663.658" cy="1086.388" r="8"/>
	<circle display="inline" fill="#FFFFFF" cx="581.23" cy="1004.737" r="5"/>
	<circle display="inline" fill="#FFFFFF" cx="609.301" cy="1046.823" r="5"/>
	<circle display="inline" fill="#FFFFFF" cx="693.02" cy="203.768" r="11"/>
	<circle display="inline" fill="#FFFFFF" cx="795.948" cy="116.094" r="11"/>
	<circle display="inline" fill="#FFFFFF" cx="679.661" cy="108.13" r="7.999"/>
	<circle display="inline" fill="#FFFFFF" cx="807.466" cy="219.517" r="8"/>
	<circle display="inline" fill="#FFFFFF" cx="725.039" cy="137.866" r="5"/>
	<circle display="inline" fill="#FFFFFF" cx="753.11" cy="179.952" r="5"/>
	<circle display="inline" fill="#FFFFFF" cx="78.125" cy="140.074" r="11"/>
	<circle display="inline" fill="#FFFFFF" cx="181.054" cy="52.399" r="11"/>
	<circle display="inline" fill="#FFFFFF" cx="64.767" cy="44.436" r="7.999"/>
	<circle display="inline" fill="#FFFFFF" cx="192.572" cy="155.822" r="8"/>
	<circle display="inline" fill="#FFFFFF" cx="110.144" cy="74.171" r="5"/>
	<circle display="inline" fill="#FFFFFF" cx="138.215" cy="116.257" r="5"/>
	<circle display="inline" fill="#FFFFFF" cx="339.22" cy="178.765" r="11"/>
	<circle display="inline" fill="#FFFFFF" cx="332.05" cy="43.747" r="11"/>
	<circle display="inline" fill="#FFFFFF" cx="255.117" cy="131.312" r="7.999"/>
	<circle display="inline" fill="#FFFFFF" cx="421.221" cy="97.39" r="8"/>
	<circle display="inline" fill="#FFFFFF" cx="306.296" cy="113.31" r="5"/>
	<circle display="inline" fill="#FFFFFF" cx="356.78" cy="116.558" r="5"/>
	<circle display="inline" fill="#FFFFFF" cx="877.047" cy="335.782" r="11"/>
	<circle display="inline" fill="#FFFFFF" cx="869.877" cy="200.765" r="11"/>
	<circle display="inline" fill="#FFFFFF" cx="792.945" cy="288.329" r="7.999"/>
	<circle display="inline" fill="#FFFFFF" cx="959.048" cy="254.407" r="7.999"/>
	<circle display="inline" fill="#FFFFFF" cx="844.123" cy="270.327" r="5"/>
	<circle display="inline" fill="#FFFFFF" cx="894.607" cy="273.575" r="5"/>
	<circle display="inline" fill="#FFFFFF" cx="840.173" cy="644.98" r="11"/>
	<circle display="inline" fill="#FFFFFF" cx="833.003" cy="509.963" r="11"/>
	<circle display="inline" fill="#FFFFFF" cx="756.071" cy="597.528" r="7.999"/>
	<circle display="inline" fill="#FFFFFF" cx="922.174" cy="563.605" r="7.999"/>
	<circle display="inline" fill="#FFFFFF" cx="807.249" cy="579.526" r="5"/>
	<circle display="inline" fill="#FFFFFF" cx="857.733" cy="582.774" r="5"/>
	<circle display="inline" fill="#FFFFFF" cx="980.149" cy="1086.017" r="11"/>
	<circle display="inline" fill="#FFFFFF" cx="972.979" cy="951" r="11"/>
	<circle display="inline" fill="#FFFFFF" cx="896.046" cy="1038.564" r="7.999"/>
	<circle display="inline" fill="#FFFFFF" cx="1062.15" cy="1004.642" r="7.999"/>
	<circle display="inline" fill="#FFFFFF" cx="947.225" cy="1020.562" r="5"/>
	<circle display="inline" fill="#FFFFFF" cx="997.709" cy="1023.81" r="5"/>
	<circle display="inline" fill="#FFFFFF" cx="836.689" cy="1050.491" r="11"/>
	<circle display="inline" fill="#FFFFFF" cx="762.515" cy="937.445" r="11"/>
	<circle display="inline" fill="#FFFFFF" cx="740.132" cy="1051.835" r="7.999"/>
	<circle display="inline" fill="#FFFFFF" cx="866.567" cy="938.896" r="7.999"/>
	<circle display="inline" fill="#FFFFFF" cx="775.287" cy="1010.514" r="5"/>
	<circle display="inline" fill="#FFFFFF" cx="820.541" cy="987.902" r="5"/>
	<circle display="inline" fill="#FFFFFF" cx="528.952" cy="164.833" r="11"/>
	<circle display="inline" fill="#FFFFFF" cx="454.778" cy="51.787" r="11"/>
	<circle display="inline" fill="#FFFFFF" cx="432.396" cy="166.177" r="7.999"/>
	<circle display="inline" fill="#FFFFFF" cx="558.83" cy="53.238" r="8"/>
	<circle display="inline" fill="#FFFFFF" cx="467.55" cy="124.856" r="5"/>
	<circle display="inline" fill="#FFFFFF" cx="512.804" cy="102.244" r="5"/>
	<circle display="inline" fill="#FFFFFF" cx="985.564" cy="498.961" r="11"/>
	<circle display="inline" fill="#FFFFFF" cx="911.39" cy="385.915" r="11"/>
	<circle display="inline" fill="#FFFFFF" cx="889.008" cy="500.305" r="7.999"/>
	<circle display="inline" fill="#FFFFFF" cx="1015.442" cy="387.366" r="8"/>
	<circle display="inline" fill="#FFFFFF" cx="1070.15" cy="528.965" r="8"/>
	<circle display="inline" fill="#FFFFFF" cx="663.658" cy="582.773" r="8"/>
	<circle display="inline" fill="#FFFFFF" cx="247.118" cy="658.547" r="8"/>
	<circle display="inline" fill="#FFFFFF" cx="338.169" cy="614" r="8"/>
	<circle display="inline" fill="#FFFFFF" cx="25.715" cy="1061.494" r="8"/>
	<circle display="inline" fill="#FFFFFF" cx="924.163" cy="458.984" r="5"/>
	<circle display="inline" fill="#FFFFFF" cx="969.417" cy="436.372" r="5"/>
	<circle display="inline" fill="#FFFFFF" cx="848.807" cy="841.523" r="11"/>
	<circle display="inline" fill="#FFFFFF" cx="774.633" cy="728.478" r="11"/>
	<circle display="inline" fill="#FFFFFF" cx="752.251" cy="842.868" r="7.999"/>
	<circle display="inline" fill="#FFFFFF" cx="878.686" cy="729.928" r="8"/>
	<circle display="inline" fill="#FFFFFF" cx="787.406" cy="801.546" r="5"/>
	<circle display="inline" fill="#FFFFFF" cx="832.66" cy="778.935" r="5"/>
	<circle display="inline" fill="#FFFFFF" cx="1030.546" cy="861.675" r="11"/>
	<circle display="inline" fill="#FFFFFF" cx="929.752" cy="771.555" r="11"/>
	<circle display="inline" fill="#FFFFFF" cx="937.596" cy="887.85" r="7.999"/>
	<circle display="inline" fill="#FFFFFF" cx="1030.666" cy="746.149" r="8"/>
	<circle display="inline" fill="#FFFFFF" cx="960.918" cy="838.866" r="5"/>
	<circle display="inline" fill="#FFFFFF" cx="998.819" cy="805.359" r="5"/>
	<circle display="inline" fill="#FFFFFF" cx="695.159" cy="157.986" r="11"/>
	<circle display="inline" fill="#FFFFFF" cx="614.303" cy="74.172" r="11"/>
	<circle display="inline" fill="#FFFFFF" cx="602.209" cy="184.161" r="7.999"/>
	<circle display="inline" fill="#FFFFFF" cx="695.279" cy="42.46" r="8"/>
	<circle display="inline" fill="#FFFFFF" cx="600.675" cy="132.864" r="5"/>
	<circle display="inline" fill="#FFFFFF" cx="1041.547" cy="703.676" r="11"/>
	<circle display="inline" fill="#FFFFFF" cx="940.753" cy="613.556" r="11"/>
	<circle display="inline" fill="#FFFFFF" cx="948.597" cy="729.851" r="7.999"/>
	<circle display="inline" fill="#FFFFFF" cx="1041.667" cy="588.15" r="8"/>
	<circle display="inline" fill="#FFFFFF" cx="971.919" cy="680.867" r="5"/>
	<circle display="inline" fill="#FFFFFF" cx="1009.82" cy="647.36" r="5"/>
	<circle display="inline" fill="#FFFFFF" cx="1069.942" cy="291.083" r="11"/>
	<circle display="inline" fill="#FFFFFF" cx="969.148" cy="200.963" r="11"/>
	<circle display="inline" fill="#FFFFFF" cx="976.993" cy="317.258" r="7.999"/>
	<circle display="inline" fill="#FFFFFF" cx="1070.062" cy="175.557" r="8"/>
	<circle display="inline" fill="#FFFFFF" cx="1000.315" cy="268.274" r="5"/>
	<circle display="inline" fill="#FFFFFF" cx="904.046" cy="146.983" r="5"/>
	<circle display="inline" fill="#FFFFFF" cx="858.565" cy="441.373" r="5"/>
	<circle display="inline" fill="#FFFFFF" cx="1038.215" cy="234.767" r="5"/>
</g>
<g id="Capa_5">
	<path fill="#69B42F" d="M0,1019c0,0,530.169-74,902.169,230L0,1371V1019z"/>
	<rect fill="#43A6DE" width="1111.865" height="1500"/>
	<path fill="#573B17" d="M0,875c0,0,44.169-48,90.169-54s40-14,66,10s32,30,40,32s28,8,42,0s36-24.262,48-18.131s16,8.131,30,20.131
		s20,16,40,40s46,40,46,40s20,16,32,0s34-22,58-40s57.525-28,63.763-38s18.237-16,28.237-22s0-14,44-14s40,0,58,18s26,30,34,26
		s44-12,62-22s26-8,46-24s24-18,44-30s28-12,60-28s32-48,62-21s38,47,52,57s40,37.66,48,38.83s17.695,13.17,17.695,13.17v230
		l-601.695,24L0,1059V875z"/>
	<path fill="#7D5B29" d="M0,1019c0,0,44.169-48,90.169-54s40-14,66,10s32,30,40,32s28,8,42,0s36-24.262,48-18.131
		s16,8.131,30,20.131s20,16,40,40s46,40,46,40s20,16,32,0s34-22,58-40s57.525-28,63.763-38s18.237-16,28.237-22s0-14,44-14
		s40,0,58,18s26,30,34,26s44-12,62-22s26-8,46-24s24-18,44-30s28-12,60-28s32-48,62-21s38,47,52,57s40,37.66,48,38.83
		s17.695,13.17,17.695,13.17v230l-601.695,24L0,1203V1019z"/>
	<path fill="#3C652A" d="M1111.865,999c0,0-317.695-66-709.695,102l600,208l109.695-14V999z"/>
	<path fill="#69B42F" d="M0,1019c0,0,530.169-74,902.169,230L0,1371V1019z"/>
	<path fill="#7FBA27" d="M0,1335c0,0,455.56-274,1111.865-70v235H0V1335z"/>
	<path fill="#FFE602" d="M880.169,0h231.695v187C1111.865,187,914.169,169,880.169,0z"/>
	<g>
		<path fill="#FFE602" d="M849.94,56.314c0,0-4.058,0.292-11.158,0.802c-7.102,0.487-17.247,1.184-29.422,2.019
			c-6.087,0.413-12.682,0.861-19.656,1.334c-6.977,0.445-14.334,0.915-21.944,1.4c-15.222,0.955-31.459,1.973-47.695,2.992
			c-8.117,0.542-16.234,1.085-24.224,1.619c-7.988,0.576-15.853,1.087-23.468,1.458c-7.618,0.329-14.984,0.584-21.977,0.674
			c-3.495,0.057-6.896,0.113-10.185,0.167c-3.291,0.012-6.471,0.024-9.522,0.035c-3.052,0.026-5.979-0.005-8.763-0.032
			c-2.784-0.035-5.423-0.025-7.906-0.093c-2.482-0.052-4.807-0.101-6.955-0.146c-2.149-0.069-4.124-0.133-5.907-0.19
			c-3.567-0.126-6.371-0.255-8.284-0.367c-1.913-0.112-2.934-0.172-2.934-0.172l-0.035-0.799c0,0,1.011-0.15,2.906-0.43
			c1.896-0.281,4.678-0.656,8.22-1.097c1.771-0.215,3.732-0.452,5.867-0.711c2.137-0.235,4.446-0.489,6.915-0.76
			c2.468-0.287,5.098-0.51,7.867-0.791c2.771-0.272,5.684-0.562,8.726-0.806c3.042-0.258,6.21-0.527,9.489-0.806
			c3.28-0.237,6.672-0.481,10.159-0.733c6.973-0.528,14.333-0.923,21.949-1.269c7.619-0.303,15.497-0.488,23.505-0.62
			c8.007-0.174,16.14-0.35,24.272-0.526c16.264-0.419,32.526-0.838,47.773-1.231c7.624-0.188,14.993-0.37,21.981-0.542
			c6.99-0.144,13.599-0.28,19.699-0.406c12.2-0.243,22.367-0.445,29.484-0.586c7.118-0.119,11.186-0.187,11.186-0.187L849.94,56.314
			z"/>
	</g>
	<g>
		<path fill="#FFE602" d="M880.434,143.3c0,0-1.27,1.271-3.491,3.495c-2.212,2.236-5.434,5.36-9.268,9.145
			c-1.921,1.889-4.001,3.935-6.201,6.098c-2.213,2.151-4.546,4.418-6.959,6.764c-4.817,4.704-10.035,9.629-15.227,14.586
			c-2.598,2.477-5.154,5-7.658,7.496c-2.498,2.504-4.995,4.925-7.49,7.178c-2.509,2.239-5.017,4.309-7.453,6.206
			c-2.424,1.911-4.76,3.667-6.953,5.247c-2.187,1.588-4.237,2.991-6.076,4.21c-1.832,1.227-3.482,2.236-4.844,3.065
			c-1.362,0.827-2.457,1.451-3.212,1.865c-0.762,0.408-1.168,0.625-1.168,0.625l-0.529-0.6c0,0,0.266-0.376,0.764-1.082
			c0.505-0.699,1.258-1.708,2.247-2.958c0.99-1.249,2.195-2.762,3.639-4.429c1.437-1.675,3.081-3.537,4.926-5.51
			c1.838-1.982,3.869-4.084,6.064-6.254c2.183-2.184,4.546-4.418,7.076-6.631c2.544-2.199,5.254-4.378,8.047-6.548
			c2.787-2.178,5.605-4.404,8.383-6.676c5.559-4.541,11.091-9.112,16.352-13.313c2.626-2.106,5.164-4.142,7.57-6.072
			c2.419-1.917,4.706-3.729,6.816-5.402c4.229-3.339,7.726-6.15,10.217-8.07c2.481-1.931,3.899-3.034,3.899-3.034L880.434,143.3z"/>
	</g>
	<g>
		<path fill="#FFE602" d="M952.565,197.059c0,0-0.39,3.36-1.07,9.241c-0.704,5.877-1.71,14.273-2.916,24.348
			c-0.608,5.037-1.267,10.494-1.963,16.265c-0.714,5.769-1.468,11.852-2.246,18.146c-1.543,12.589-3.31,25.999-5.035,39.415
			c-0.819,6.715-1.638,13.429-2.443,20.039c-0.765,6.616-1.572,13.119-2.476,19.393c-0.939,6.269-1.936,12.316-2.983,18.035
			c-0.53,2.858-1.047,5.639-1.547,8.329c-0.536,2.684-1.054,5.277-1.551,7.767c-0.483,2.492-1.001,4.872-1.491,7.135
			c-0.498,2.263-0.928,4.415-1.408,6.426c-0.465,2.014-0.899,3.898-1.302,5.641c-0.426,1.739-0.817,3.336-1.171,4.779
			c-0.717,2.884-1.314,5.145-1.737,6.684c-0.431,1.538-0.66,2.358-0.66,2.358l-0.791-0.118c0,0,0.021-0.852,0.059-2.448
			c0.046-1.596,0.136-3.933,0.294-6.9c0.084-1.483,0.177-3.125,0.278-4.913c0.125-1.784,0.261-3.713,0.405-5.775
			c0.129-2.064,0.348-4.248,0.533-6.557c0.193-2.308,0.395-4.735,0.661-7.259c0.253-2.526,0.517-5.158,0.789-7.881
			c0.309-2.718,0.628-5.528,0.957-8.417c0.671-5.775,1.487-11.849,2.423-18.119c0.972-6.265,2.102-12.719,3.306-19.269
			c1.163-6.556,2.345-13.217,3.525-19.877c2.274-13.334,4.508-26.674,6.715-39.164c1.097-6.246,2.155-12.284,3.16-18.009
			c1.022-5.723,1.989-11.133,2.881-16.127c1.794-9.988,3.288-18.311,4.334-24.136c1.069-5.823,1.68-9.15,1.68-9.15L952.565,197.059z
			"/>
	</g>
	<g>
		<path fill="#FFE602" d="M1068.57,218.987c0,0,0.08,1.565,0.221,4.304c0.156,2.739,0.287,6.65,0.49,11.345
			c0.098,2.347,0.202,4.89,0.313,7.579c0.093,2.689,0.191,5.525,0.292,8.458c0.219,5.867,0.33,12.124,0.482,18.38
			c0.074,3.128,0.21,6.258,0.36,9.339c0.161,3.081,0.263,6.112,0.24,9.043c-0.042,2.931-0.208,5.761-0.453,8.443
			c-0.227,2.683-0.508,5.218-0.823,7.557c-0.304,2.339-0.653,4.482-0.995,6.38c-0.332,1.899-0.701,3.553-1.009,4.915
			c-0.31,1.362-0.588,2.431-0.793,3.16c-0.213,0.729-0.326,1.117-0.326,1.117l-0.801-0.016c0,0-0.098-0.393-0.281-1.129
			c-0.176-0.736-0.411-1.816-0.666-3.189c-0.253-1.373-0.556-3.04-0.812-4.951c-0.266-1.911-0.529-4.066-0.739-6.415
			c-0.222-2.35-0.401-4.894-0.521-7.583c-0.138-2.69-0.19-5.525-0.115-8.455c0.095-2.93,0.317-5.955,0.602-9.027
			c0.273-3.073,0.534-6.194,0.733-9.317c0.402-6.246,0.764-12.493,1.217-18.347c0.218-2.927,0.43-5.756,0.63-8.439
			c0.219-2.683,0.425-5.22,0.616-7.561c0.391-4.682,0.678-8.585,0.943-11.316c0.25-2.731,0.393-4.292,0.393-4.292L1068.57,218.987z"
			/>
	</g>
</g>
</svg>
